<?xml version="1.0" encoding="UTF-8"?>
<svg version="1.1" xmlns="http://www.w3.org/2000/svg" width="2000" height="2000">
<path d="M0 0 C660 0 1320 0 2000 0 C2000 660 2000 1320 2000 2000 C1340 2000 680 2000 0 2000 C0 1340 0 680 0 0 Z " fill="#003398" transform="translate(0,0)"/>
<path d="M0 0 C3.0230724 0.01071234 6.04554914 0.00005088 9.06860352 -0.01269531 C20.24717449 -0.02058684 31.04670698 0.49988124 42.09399414 2.26074219 C43.32722412 2.45192627 44.5604541 2.64311035 45.83105469 2.84008789 C80.38384203 8.50967747 112.90412929 27.41917165 134.09399414 55.26074219 C135.09172852 56.53498047 135.09172852 56.53498047 136.10961914 57.83496094 C154.39996129 81.92204538 164.91445504 111.92941427 168.76147461 141.75585938 C169.01375141 143.65627054 169.3001273 145.55219314 169.60229492 147.4453125 C171.31906146 159.11688767 171.39874454 170.69372227 171.35473633 182.47607422 C171.34407868 185.8589091 171.35465331 189.24120527 171.36743164 192.62402344 C171.39397274 236.10052092 164.62952326 283.36938734 138.09399414 319.26074219 C137.52036133 320.04449219 136.94672852 320.82824219 136.35571289 321.63574219 C129.77805765 330.34546498 122.52730061 338.3210731 114.09399414 345.26074219 C114.7088535 348.75911403 116.05890289 350.83155389 118.23461914 353.61230469 C118.8863208 354.45414307 119.53802246 355.29598145 120.20947266 356.16333008 C120.91386475 357.06172607 121.61825684 357.96012207 122.34399414 358.88574219 C123.8184875 360.79187458 125.2911176 362.69944964 126.76196289 364.60839844 C127.86483643 366.03949951 127.86483643 366.03949951 128.98999023 367.49951172 C131.95325398 371.38840855 134.81480212 375.34505247 137.65649414 379.32324219 C144.15731318 388.40758875 150.85470701 397.33947354 157.58276367 406.25634766 C158.33082275 407.24852295 158.33082275 407.24852295 159.09399414 408.26074219 C159.65328613 408.96473145 160.21257812 409.6687207 160.78881836 410.39404297 C162.09399414 412.26074219 162.09399414 412.26074219 162.09399414 414.26074219 C152.86231171 414.51640045 143.63185952 414.71144661 134.39740086 414.83067608 C130.10854538 414.88792357 125.82212293 414.96546008 121.53466797 415.09057617 C117.39120327 415.2107239 113.25006676 415.27599038 109.10499382 415.30439186 C107.52951337 415.32460978 105.95415078 415.36409769 104.3796711 415.42377281 C92.06855456 415.87152459 92.06855456 415.87152459 87.15789795 411.86557007 C84.86912507 409.09695611 82.95102093 406.33086831 81.09399414 403.26074219 C80.21165587 402.04960748 79.32022687 400.84496538 78.41430664 399.65136719 C77.68985352 398.61496094 76.96540039 397.57855469 76.21899414 396.51074219 C75.39178415 395.33561838 74.56362047 394.16116547 73.73461914 392.98730469 C73.31116211 392.38692383 72.88770508 391.78654297 72.45141602 391.16796875 C69.99332632 387.7142643 67.48029428 384.30085005 64.96899414 380.88574219 C64.48317871 380.22477539 63.99736328 379.56380859 63.49682617 378.8828125 C62.36328025 377.34158418 61.22875177 375.80107859 60.09399414 374.26074219 C59.49111572 374.38352539 58.8882373 374.50630859 58.26708984 374.6328125 C56.62047786 374.9665377 54.97272682 375.29464899 53.32446289 375.62011719 C51.01250621 376.07859469 48.70283731 376.54866905 46.39477539 377.02636719 C1.60129074 386.11215365 -51.94054664 381.59788808 -90.90600586 356.26074219 C-98.76657522 350.83965987 -105.9613781 344.80312575 -112.90600586 338.26074219 C-113.56987305 337.66132812 -114.23374023 337.06191406 -114.91772461 336.44433594 C-147.71626364 305.64165121 -160.40760747 254.04703013 -162.00036621 210.69226074 C-163.61790368 154.60672748 -158.97859253 94.72775944 -120.90600586 50.26074219 C-120.19702148 49.42929687 -119.48803711 48.59785156 -118.75756836 47.74121094 C-105.23480526 32.29679203 -89.44208867 21.75339064 -70.90600586 13.26074219 C-70.03717773 12.86242187 -69.16834961 12.46410156 -68.27319336 12.05371094 C-46.43233233 2.7620904 -23.51939753 -0.09895693 0 0 Z " fill="#FDFEFE" transform="translate(1193.906005859375,787.7392578125)"/>
<path d="M0 0 C210.18592965 0 210.18592965 0 255.9375 43.5625 C266.68816989 54.60326733 274.97837441 67.34780042 282 81 C282.46913818 81.89356201 282.46913818 81.89356201 282.94775391 82.80517578 C291.91556546 100.05685378 296.78502016 118.91794947 300 138 C300.32097656 139.86205078 300.32097656 139.86205078 300.6484375 141.76171875 C306.13810778 176.64897121 304.59374215 214.82422411 296 249 C295.7618457 249.95084473 295.52369141 250.90168945 295.27832031 251.88134766 C288.26468115 278.98623718 275.58383842 303.85762074 256 324 C255.24589844 324.81597656 254.49179688 325.63195313 253.71484375 326.47265625 C238.17973957 342.81609105 218.20692555 353.06662651 197 360 C196.26072266 360.24234375 195.52144531 360.4846875 194.75976562 360.734375 C133.46252295 380.48997694 59.12360518 370 0 370 C0 247.9 0 125.8 0 0 Z " fill="#FEFEFE" transform="translate(1430,793)"/>
<path d="M0 0 C77.55 0 155.1 0 235 0 C235 17.82 235 35.64 235 54 C179.23 54 123.46 54 66 54 C66 87.99 66 121.98 66 157 C117.81 157 169.62 157 223 157 C223 174.82 223 192.64 223 211 C171.19 211 119.38 211 66 211 C66 245.32 66 279.64 66 315 C122.76 315 179.52 315 238 315 C238 333.15 238 351.3 238 370 C159.46 370 80.92 370 0 370 C0 247.9 0 125.8 0 0 Z " fill="#FDFDFE" transform="translate(751,793)"/>
<path d="M0 0 C1.5199518 -0.0114756 3.03986472 -0.03185705 4.55957031 -0.06152344 C30.03306981 -0.55585956 53.18804426 7.8455053 71.73339844 25.42016602 C77.36708799 31.05677609 81.41138991 37.29608099 85.17089844 44.29516602 C85.77675781 45.4127832 86.38261719 46.53040039 87.00683594 47.68188477 C95.40024721 64.34042374 99.15189011 82.85921196 101.17089844 101.29516602 C101.31229248 102.54535522 101.31229248 102.54535522 101.45654297 103.82080078 C102.44588305 113.85136408 102.41352124 123.91311992 102.42089844 133.98266602 C102.42190552 134.9371463 102.4229126 135.89162659 102.4239502 136.87503052 C102.41324253 151.90339747 101.71659111 166.45591068 99.17089844 181.29516602 C99.03699707 182.15964355 98.9030957 183.02412109 98.76513672 183.91479492 C95.43312885 205.31638244 87.80453017 225.3155514 74.17089844 242.29516602 C70.91340653 240.91355827 69.2631653 239.47543476 67.20996094 236.61157227 C66.654375 235.84651367 66.09878906 235.08145508 65.52636719 234.29321289 C64.9553125 233.48948242 64.38425781 232.68575195 63.79589844 231.85766602 C62.03370588 229.41491726 60.26940654 226.98980409 58.42822266 224.60546875 C56.53456703 222.02390504 55.23398843 219.35597583 53.88623047 216.45556641 C50.8876414 210.64569777 47.81966488 205.79999591 42.17089844 202.29516602 C30.95264831 199.19157089 18.89052356 200.11049448 7.36956787 200.52697754 C3.05934082 200.66210976 -1.25148114 200.68754685 -5.56347656 200.72290039 C-13.98964853 200.80781902 -22.40725553 201.01238975 -30.82910156 201.29516602 C-20.13735098 215.83844818 -20.13735098 215.83844818 -9.32910156 230.29516602 C-3.72134369 237.74824336 1.83457805 245.23745135 7.34082031 252.76586914 C10.76137504 257.43026195 14.27070287 262.00889196 17.86816406 266.53857422 C19.17089844 268.29516602 19.17089844 268.29516602 19.17089844 269.29516602 C-6.33102116 275.13904956 -34.2654304 269.09123515 -56.51660156 256.17016602 C-80.084775 240.25721884 -91.51268252 213.53094865 -96.83691406 186.43579102 C-99.09215392 173.87069821 -99.98193884 161.33045071 -100.06738281 148.56860352 C-100.07545456 147.38207184 -100.08352631 146.19554016 -100.09184265 144.97305298 C-100.10559095 142.47041237 -100.11635388 139.96775375 -100.12426758 137.46508789 C-100.13570934 134.96014726 -100.15603472 132.45522947 -100.18579102 129.95043945 C-100.62723752 92.63217992 -95.51650614 51.76381757 -68.36035156 23.74829102 C-48.92281478 5.41795569 -25.82708172 0.13491759 0 0 Z " fill="#003399" transform="translate(1197.8291015625,842.704833984375)"/>
<path d="M0 0 C113.84732824 0 113.84732824 0 140 24 C141.15048828 25.01320313 141.15048828 25.01320313 142.32421875 26.046875 C163.74026971 45.97216519 171.23430356 79.81061422 172.28710938 107.96313477 C172.43593396 114.20521013 172.42119632 120.44424524 172.375 126.6875 C172.37101196 127.78229675 172.36702393 128.87709351 172.36291504 130.00506592 C172.2940142 146.13757805 171.97751737 162.09530861 169 178 C168.86078125 178.75104004 168.7215625 179.50208008 168.578125 180.27587891 C167.66306354 184.9390914 166.44746537 189.47319924 165 194 C164.76297363 194.7532959 164.52594727 195.5065918 164.28173828 196.28271484 C156.93968471 219.09239665 144.2730395 237.19602192 122.73828125 248.75 C115.38655746 252.29727324 107.87159604 254.87485966 100 257 C98.99710938 257.27714844 97.99421875 257.55429688 96.9609375 257.83984375 C66.03834481 265.70749075 30.24616755 262 0 262 C0 175.54 0 89.08 0 0 Z " fill="#013399" transform="translate(1495,847)"/>
<path d="M0 0 C0.84917999 0.00115814 1.69835999 0.00231628 2.57327271 0.00350952 C16.20147548 0.04012943 29.44847171 0.85687258 42.875 3.3125 C44.06955811 3.51093506 45.26411621 3.70937012 46.49487305 3.91381836 C56.23081051 5.57227809 65.46542192 8.08155072 74.8125 11.25 C75.51856384 11.48660339 76.22462769 11.72320679 76.9520874 11.96697998 C120.30304 26.58183264 159.50136694 53.23605934 187.875 89.3125 C188.66648437 90.28703125 189.45796875 91.2615625 190.2734375 92.265625 C210.70686781 117.92021574 225.11717093 148.52644639 232.875 180.3125 C233.14304443 181.35954102 233.14304443 181.35954102 233.41650391 182.42773438 C240.84131413 211.53674647 242.8441938 243.58845074 237.875 273.3125 C237.7620459 274.04098145 237.6490918 274.76946289 237.53271484 275.52001953 C228.40536745 332.98443023 196.97268594 388.46590786 150.875 424.3125 C149.88113281 425.11171875 148.88726563 425.9109375 147.86328125 426.734375 C127.05812629 443.3311998 103.02519406 455.78038406 77.875 464.3125 C76.96814453 464.62558105 76.06128906 464.93866211 75.12695312 465.26123047 C60.27519122 470.32150455 45.43011076 473.34752638 29.875 475.3125 C29.13040527 475.415625 28.38581055 475.51875 27.61865234 475.625 C4.93462376 478.39436037 -20.80039523 478.11376635 -43.125 473.3125 C-44.55803467 473.00650879 -44.55803467 473.00650879 -46.02001953 472.69433594 C-64.4726932 468.63054789 -81.95986271 462.79620802 -99.1875 455.0625 C-100.13447754 454.63807617 -101.08145508 454.21365234 -102.05712891 453.77636719 C-102.93675293 453.37063477 -103.81637695 452.96490234 -104.72265625 452.546875 C-105.50133057 452.18819336 -106.28000488 451.82951172 -107.08227539 451.45996094 C-109.18421843 450.2792352 -110.60012327 449.1757396 -112.125 447.3125 C-112.4375 444.75 -112.4375 444.75 -112.125 442.3125 C-111.465 441.6525 -110.805 440.9925 -110.125 440.3125 C-105.02618268 440.59869654 -100.91920844 442.68326206 -96.4375 444.9375 C-65.84705708 459.69351472 -33.03011683 466.51437248 0.8125 466.625 C1.54308624 466.62885712 2.27367249 466.63271423 3.02639771 466.63668823 C13.45635139 466.66385913 23.56194 465.8505523 33.875 464.3125 C34.86298584 464.16659424 35.85097168 464.02068848 36.86889648 463.87036133 C95.26333079 454.77234982 149.46730333 422.76136643 184.60888672 375.05859375 C213.67924517 334.96773305 229.00975488 288.99845048 229.11523438 239.5065918 C229.1248956 236.77946943 229.15599454 234.05311712 229.1875 231.32617188 C229.26054687 219.35906471 228.11286045 208.05729601 225.875 196.3125 C225.6378496 194.97668438 225.40179946 193.64067284 225.16699219 192.30444336 C223.55107311 183.57226524 221.20831569 175.22378397 218.375 166.8125 C218.05219559 165.84987244 218.05219559 165.84987244 217.72286987 164.86779785 C209.57224255 140.72291802 197.7803426 118.25865937 181.875 98.3125 C181.16988281 97.4153125 180.46476562 96.518125 179.73828125 95.59375 C157.60017077 67.93104822 130.13189147 46.13508538 97.875 31.3125 C96.75222656 30.79300781 95.62945313 30.27351562 94.47265625 29.73828125 C77.12495337 22.02594193 59.51995157 16.80535372 40.875 13.3125 C39.6382251 13.0647583 39.6382251 13.0647583 38.37646484 12.81201172 C-16.76953783 1.94464172 -77.46393398 16.31986741 -124.00488281 46.8828125 C-146.8180385 62.2667185 -166.48635144 80.79218468 -182.8125 102.9375 C-183.51862427 103.89523315 -183.51862427 103.89523315 -184.23901367 104.87231445 C-186.81869234 108.40891909 -189.17934517 111.99626094 -191.4375 115.75 C-192.78515625 117.828125 -192.78515625 117.828125 -194.125 119.3125 C-197.375 120 -197.375 120 -200.125 119.3125 C-200.785 118.6525 -201.445 117.9925 -202.125 117.3125 C-202.05477218 111.43969816 -198.96852015 107.65990696 -195.625 103.125 C-195.08109619 102.37323486 -194.53719238 101.62146973 -193.97680664 100.84692383 C-180.62795905 82.54402664 -165.09719263 65.17340673 -147.125 51.3125 C-146.5789209 50.89000977 -146.0328418 50.46751953 -145.47021484 50.03222656 C-130.74470203 38.71635396 -115.00101242 29.07277062 -98.125 21.3125 C-97.04943848 20.8160498 -97.04943848 20.8160498 -95.95214844 20.30957031 C-65.52921052 6.45686002 -33.34082346 -0.14193154 0 0 Z " fill="#F86E04" transform="translate(466.125,761.6875)"/>
<path d="M0 0 C58.68641555 -1.95067942 116.26967324 16.99391825 159.81884766 57.21142578 C161.38477867 58.68819948 162.93886348 60.17570373 164.484375 61.67382812 C166.00907001 63.15156429 167.54845059 64.61287334 169.08837891 66.07470703 C208.22054536 103.7070779 231.60846582 159.5147676 233.28759766 213.48486328 C233.54652695 227.73050118 232.93535844 241.62160936 230.44628906 255.65771484 C230.02120411 258.06479968 229.64255715 260.47572317 229.26806641 262.89111328 C223.3652967 298.36990446 207.43303931 332.19343167 185.00634766 360.14892578 C183.79978516 361.66099609 183.79978516 361.66099609 182.56884766 363.20361328 C172.10491219 376.05642147 160.27180945 388.19043464 147.00634766 398.14892578 C146.22275879 398.73915527 146.22275879 398.73915527 145.42333984 399.34130859 C116.1496181 421.24112492 81.36917425 437.17139132 45.00634766 442.14892578 C43.89259766 442.31811523 43.89259766 442.31811523 42.75634766 442.49072266 C19.25164452 445.98746106 -6.74911532 446.16522405 -29.99365234 441.14892578 C-31.15251953 440.96716797 -32.31138672 440.78541016 -33.50537109 440.59814453 C-69.86680559 434.61255565 -105.29711287 416.09443786 -132.99365234 392.14892578 C-133.74001953 391.51341797 -134.48638672 390.87791016 -135.25537109 390.22314453 C-137.88910019 387.92030839 -140.45046535 385.55044984 -142.99365234 383.14892578 C-143.71697754 382.47023438 -144.44030273 381.79154297 -145.18554688 381.09228516 C-147.68159855 378.73376388 -150.15205469 376.35070966 -152.61865234 373.96142578 C-153.84757202 372.80235718 -153.84757202 372.80235718 -155.10131836 371.61987305 C-155.8624292 370.87278076 -156.62354004 370.12568848 -157.40771484 369.35595703 C-158.09816895 368.69055908 -158.78862305 368.02516113 -159.5 367.33959961 C-161.45760414 364.4684682 -161.3420639 362.55202234 -160.99365234 359.14892578 C-159.99365234 358.14892578 -159.99365234 358.14892578 -157.37646484 357.62939453 C-152.22803671 358.42008846 -150.16074356 361.62972477 -146.86865234 365.46142578 C-145.53466789 366.94482825 -144.19740052 368.4252848 -142.85693359 369.90283203 C-142.20031738 370.63131348 -141.54370117 371.35979492 -140.8671875 372.11035156 C-108.49376143 407.33554152 -55.18010751 432.23429008 -7.44628906 434.39160156 C9.98416049 434.97639229 27.75318192 434.86424088 45.00634766 432.14892578 C45.77479004 432.03597168 46.54323242 431.92301758 47.33496094 431.80664062 C87.02025642 425.76035963 124.48968057 406.17654055 153.83447266 379.13330078 C155.74496529 377.38774276 157.6963898 375.73035127 159.69384766 374.08642578 C163.55688135 370.78937144 166.74384409 367.02812209 170.00634766 363.14892578 C170.72306641 362.34326172 171.43978516 361.53759766 172.17822266 360.70751953 C198.83543431 330.08657216 214.989116 292.06573628 221.00634766 252.14892578 C221.18423828 251.00738037 221.18423828 251.00738037 221.36572266 249.84277344 C225.64419512 221.49152662 223.93953099 190.44998782 215.00634766 163.14892578 C214.58200376 161.75474914 214.15890023 160.36019457 213.73681641 158.96533203 C204.4401563 128.9966566 188.72300922 102.57996921 168.00634766 79.14892578 C167.21228516 78.23240234 166.41822266 77.31587891 165.60009766 76.37158203 C161.04458783 71.18422923 156.34711778 66.51706785 151.00634766 62.14892578 C150.48830566 61.71854004 149.97026367 61.2881543 149.43652344 60.84472656 C102.44558963 21.87695697 46.1145071 5.45193242 -14.49731445 10.91845703 C-40.81554494 13.69341131 -65.7245547 21.63055694 -88.99365234 34.14892578 C-89.65993652 34.50212891 -90.3262207 34.85533203 -91.01269531 35.21923828 C-105.82853282 43.10777613 -119.77392939 52.56914753 -132.05224609 64.07861328 C-136.42650515 68.16125507 -136.42650515 68.16125507 -139.86865234 68.08642578 C-141.99365234 67.14892578 -141.99365234 67.14892578 -142.99365234 66.14892578 C-143.49365234 64.02392578 -143.49365234 64.02392578 -142.99365234 61.14892578 C-126.95706042 38.67428601 -91.93245682 22.73516439 -66.99365234 13.14892578 C-65.79998047 12.68873047 -64.60630859 12.22853516 -63.37646484 11.75439453 C-42.88012852 4.43427442 -21.67457868 0.80825853 0 0 Z " fill="#F76E04" transform="translate(456.99365234375,777.85107421875)"/>
<path d="M0 0 C1.49152463 0.50845907 2.98375158 1.01486117 4.4765625 1.51953125 C27.38492759 9.42051688 48.61642771 21.13069959 67 37 C67.75667969 37.64710938 68.51335937 38.29421875 69.29296875 38.9609375 C101.46778015 67.19918959 123.75566644 101.85100018 135.3125 143.1875 C135.54291992 144.00452393 135.77333984 144.82154785 136.01074219 145.66333008 C140.10151329 161.06979877 141.49351755 176.01892973 141.39111328 191.91259766 C141.37505232 194.86538127 141.39104941 197.81678909 141.41015625 200.76953125 C141.43066201 217.68246982 139.74658747 234.04807615 134.6875 250.25 C134.38191162 251.25812744 134.07632324 252.26625488 133.76147461 253.30493164 C131.18522007 261.67658939 128.39979458 269.92574654 125 278 C124.58161865 278.99725098 124.58161865 278.99725098 124.15478516 280.01464844 C115.48952342 300.28935351 102.98313843 318.64547446 88.0078125 334.78125 C86.60526218 336.33114996 85.26237613 337.93621491 83.96875 339.578125 C82.2116575 341.73962767 80.49725469 343.46188754 78.375 345.25 C76.15593566 347.13640753 73.97228836 349.02619734 71.85546875 351.02734375 C59.76781027 362.41486528 45.71773621 371.40716463 31 379 C30.27087402 379.37753418 29.54174805 379.75506836 28.79052734 380.14404297 C11.35002366 389.05674948 -6.8499076 395.02128196 -26 399 C-27.48693359 399.32097656 -27.48693359 399.32097656 -29.00390625 399.6484375 C-54.58961792 404.78792543 -83.60069369 403.6230784 -109 398 C-109.92780273 397.79632812 -110.85560547 397.59265625 -111.81152344 397.3828125 C-152.70843634 388.05468876 -193.13069366 364.52913805 -220 332 C-220.75667969 331.13117188 -221.51335937 330.26234375 -222.29296875 329.3671875 C-250.8278098 296.18713977 -250.8278098 296.18713977 -252.25 280.1875 C-252 278 -252 278 -251 277 C-249.00041636 276.95919217 -246.99954746 276.95745644 -245 277 C-244.69408936 277.58265625 -244.38817871 278.1653125 -244.07299805 278.765625 C-234.61735019 296.68047746 -224.43088401 312.83287987 -211 328 C-210.20464844 328.9178125 -209.40929687 329.835625 -208.58984375 330.78125 C-204.03475824 335.96920331 -199.33394162 340.62477338 -194 345 C-193.49791016 345.42506836 -192.99582031 345.85013672 -192.47851562 346.28808594 C-178.06140274 358.48653743 -162.19200507 368.20274983 -145 376 C-144.26120605 376.33628418 -143.52241211 376.67256836 -142.76123047 377.01904297 C-108.5699387 392.28928844 -69.943682 396.72943069 -33.14160156 390.35839844 C-31.37964662 390.06353411 -29.60839697 389.8247611 -27.8359375 389.6015625 C-10.5364363 387.35811134 6.44095982 380.66899529 22 373 C23.07024414 372.47817139 23.07024414 372.47817139 24.16210938 371.94580078 C41.45711597 363.42695736 57.77791412 352.57583117 71.2421875 338.67578125 C74 336 74 336 76 336 C76.26321045 335.40743408 76.5264209 334.81486816 76.79760742 334.2043457 C78.05198235 331.90470079 79.33362467 330.51250449 81.23828125 328.73046875 C115.08809691 295.79054733 131.48997684 244.76347614 132.28564453 198.49755859 C132.65869502 146.44005851 113.89630386 97.8428339 78 60 C77.54318848 59.51063965 77.08637695 59.0212793 76.61572266 58.51708984 C47.45943069 27.44478533 7.24399244 7.68772575 -34.68017578 1.35375977 C-36.35597823 1.09820959 -38.02513341 0.79769186 -39.68823242 0.46948242 C-43.98702844 -0.13992301 -48.20618755 -0.18198573 -52.54296875 -0.203125 C-53.46604324 -0.20882507 -54.38911774 -0.21452515 -55.34016418 -0.22039795 C-57.29601914 -0.2298243 -59.25188981 -0.23637251 -61.20776367 -0.24023438 C-64.13295247 -0.24982123 -67.05740128 -0.28081661 -69.98242188 -0.3125 C-102.30566691 -0.49404219 -131.92056313 8.57635876 -160.26953125 23.75 C-163.4140935 25.1895707 -164.77288436 25.10643965 -168 24 C-169 23 -169 23 -169.0625 20.4375 C-169.041875 19.633125 -169.02125 18.82875 -169 18 C-119.57658641 -11.95143832 -54.69235953 -20.00800155 0 0 Z " fill="#F76E04" transform="translate(532,804)"/>
<path d="M0 0 C1.24523437 0.01804687 2.49046875 0.03609375 3.7734375 0.0546875 C43.70525145 1.58017253 84.33396579 19.63019182 114 46 C114.58378418 46.51820313 115.16756836 47.03640625 115.76904297 47.5703125 C123.92900545 54.86245954 131.33730052 62.28628295 138 71 C138.7734375 71.93457031 139.546875 72.86914062 140.34375 73.83203125 C159.10965117 96.96278602 171.24390275 125.89298813 177 155 C177.18240234 155.89468994 177.36480469 156.78937988 177.55273438 157.71118164 C179.43257882 168.15391967 179.4429759 178.6105214 179.4375 189.1875 C179.4375705 190.16354187 179.43764099 191.13958374 179.43771362 192.14520264 C179.30974097 238.27674558 162.54098787 282.6702752 131.109375 316.703125 C129.22100188 318.75935351 127.42019417 320.86286408 125.625 323 C112.26435408 338.17842088 94.90619542 349.83990684 77 359 C75.98172119 359.52352051 75.98172119 359.52352051 74.94287109 360.05761719 C30.59998749 382.56616863 -22.58698711 386.69427385 -69.9375 371.3125 C-105.20453889 359.2573455 -137.02289965 337.44638103 -160 308 C-160.6482373 307.17435547 -160.6482373 307.17435547 -161.30957031 306.33203125 C-172.63136886 291.80225373 -181.05396775 276.01914454 -188 259 C-188.46148437 257.90300781 -188.92296875 256.80601562 -189.3984375 255.67578125 C-191.81678726 249.71784684 -193.75263122 243.71471342 -195.375 237.5 C-195.55506592 236.82904297 -195.73513184 236.15808594 -195.9206543 235.46679688 C-196.86324212 231.64828064 -197.1221115 228.78894791 -196 225 C-194.35 224.67 -192.7 224.34 -191 224 C-188.58450485 227.67427431 -187.28944116 231.00324958 -186.1875 235.25 C-179.00811273 261.18756078 -167.89709269 285.65950991 -150 306 C-149.29359375 306.81597656 -148.5871875 307.63195313 -147.859375 308.47265625 C-116.45618843 344.11188418 -73.18475797 367.50995662 -25.390625 370.71875 C19.19572198 373.2046221 64.58282913 362.17102381 100 334 C100.81041748 333.35877197 100.81041748 333.35877197 101.63720703 332.70458984 C136.4038716 304.90155942 160.16365565 265.95348894 168 222 C168.27710815 220.45602539 168.27710815 220.45602539 168.55981445 218.88085938 C170.15882457 208.9963297 170.44126229 199.23852603 170.4375 189.25 C170.43823517 188.39649963 170.43897034 187.54299927 170.43972778 186.66363525 C170.33200815 138.81490909 150.65784366 96.30771987 118 62 C117.30777344 61.24332031 116.61554688 60.48664062 115.90234375 59.70703125 C99.86641975 42.74417522 79.14972054 31.28159721 58 22 C57.32888184 21.70464355 56.65776367 21.40928711 55.96630859 21.10498047 C44.08121326 15.99067821 31.6738804 13.39459311 19 11 C17.73929688 10.75121094 16.47859375 10.50242187 15.1796875 10.24609375 C-4.50996826 6.97971234 -26.67223323 7.59357346 -46.125 12.125 C-49.92221895 12.98243654 -53.1239899 13.31640899 -57 13 C-57.99 12.01 -57.99 12.01 -59 11 C-58.63318342 8.06546739 -58.13562754 7.13562754 -56 5 C-38.19127529 -0.52208518 -18.45222318 -0.45762134 0 0 Z " fill="#F66E04" transform="translate(478,810)"/>
<path d="M0 0 C39.48519205 0.53560078 78.83842852 25.08325949 106.21484375 51.69921875 C141.62894378 88.09886887 155.3495092 133.86335578 154.7421875 183.56640625 C153.87777926 228.68818496 131.1792219 269.65348222 99.72265625 300.7890625 C87.91409153 311.87930207 74.76718973 320.72525985 60.40234375 328.13671875 C59.78391602 328.45624512 59.16548828 328.77577148 58.52832031 329.10498047 C48.51515029 334.19673865 38.14296599 337.88937103 27.40234375 341.13671875 C26.38914062 341.44480469 25.3759375 341.75289062 24.33203125 342.0703125 C21.36857051 342.88505313 18.41775718 343.54002917 15.40234375 344.13671875 C14.72026855 344.27207031 14.03819336 344.40742187 13.33544922 344.546875 C-31.45748382 353.06242296 -77.68839918 343.73257215 -115.61083984 318.4921875 C-148.34136317 296.16239326 -171.10682142 265.21582306 -184.59765625 228.13671875 C-185.00757813 227.03328125 -185.4175 225.92984375 -185.83984375 224.79296875 C-192.28912324 205.79509117 -194.18248244 185.07711123 -192.59765625 165.13671875 C-191.59765625 164.13671875 -191.59765625 164.13671875 -189.09765625 164.01171875 C-186.59765625 164.13671875 -186.59765625 164.13671875 -185.59765625 165.13671875 C-185.48235779 167.29749724 -185.37529245 169.45900948 -185.30834961 171.62182617 C-183.92146376 216.36963892 -168.32733547 256.53797138 -137.59765625 289.13671875 C-136.94925781 289.84957031 -136.30085938 290.56242187 -135.6328125 291.296875 C-109.25894006 319.18939653 -69.47427168 336.64928474 -31.27172852 338.27856445 C10.39017741 339.36172465 48.97624317 330.22954217 82.40234375 304.13671875 C83.35109375 303.4096875 84.29984375 302.68265625 85.27734375 301.93359375 C119.69524181 274.75127653 140.52852641 234.13508115 145.9609375 190.90234375 C150.64048989 146.91734785 137.32215597 103.09362283 109.71484375 68.7734375 C95.03591985 50.8485406 78.06602955 36.65564679 57.40234375 26.13671875 C56.50298096 25.66975586 56.50298096 25.66975586 55.58544922 25.19335938 C39.61411564 16.97777895 22.92499944 11.84633601 5.13305664 9.46606445 C4.16746826 9.33159912 3.20187988 9.19713379 2.20703125 9.05859375 C1.35093262 8.9512793 0.49483398 8.84396484 -0.38720703 8.73339844 C-2.95180511 8.04112125 -4.01071613 7.24783991 -5.59765625 5.13671875 C-5.08309577 0.76295471 -4.48387206 0.17039688 0 0 Z " fill="#F66D05" transform="translate(486.59765625,826.86328125)"/>
<path d="M0 0 C16.81044233 1.81319213 34.42352417 18.91181138 46 30 C46.74378906 30.69222656 47.48757813 31.38445313 48.25390625 32.09765625 C67.19697845 50.25006109 80.75498041 74.90749314 88 100 C88.27457031 100.93585938 88.54914063 101.87171875 88.83203125 102.8359375 C99.36010735 141.52532059 93.22287258 184.16523495 74 219 C73.42378906 220.06605469 72.84757812 221.13210938 72.25390625 222.23046875 C65.39310234 234.47850899 56.62453476 244.88412263 47 255 C46.36835937 255.69609375 45.73671875 256.3921875 45.0859375 257.109375 C34.40061749 268.50077342 20.79269103 276.9129045 7 284 C5.9584375 284.54140625 4.916875 285.0828125 3.84375 285.640625 C-33.52824004 303.94134177 -77.07705348 306.10784779 -116.41650391 292.92285156 C-134.20350192 286.56915165 -150.71974277 277.40384117 -165 265 C-166.22589844 263.93845703 -166.22589844 263.93845703 -167.4765625 262.85546875 C-170.02062006 260.60677391 -172.51689729 258.31574626 -175 256 C-175.80179687 255.26394531 -176.60359375 254.52789063 -177.4296875 253.76953125 C-204.06284761 228.37017568 -221.37622654 189.78157397 -222.28125 153.01171875 C-222.99969221 114.38867742 -222.99969221 114.38867742 -217 102 C-216.01 101.01 -216.01 101.01 -215 100 C-212.875 100.375 -212.875 100.375 -211 101 C-209.77802662 105.33393225 -210.32337702 108.40843723 -211.375 112.75 C-219.75854086 147.69447872 -212.62114658 186.06834865 -195 217 C-194.67 217.58313965 -194.34 218.1662793 -194 218.76708984 C-189.63194935 226.38771727 -184.71550121 233.33915924 -179 240 C-178.30132812 240.82113281 -177.60265625 241.64226562 -176.8828125 242.48828125 C-164.32083485 256.86079304 -150.11112905 267.5437053 -133.3125 276.375 C-131.8879248 277.12499268 -131.8879248 277.12499268 -130.43457031 277.89013672 C-120.94754906 282.75186568 -111.27623817 286.14973554 -100.9375 288.6875 C-100.11701172 288.89955078 -99.29652344 289.11160156 -98.45117188 289.33007812 C-61.01159651 298.65320883 -19.05625005 290.67361295 13.78466797 271.37255859 C47.66914828 250.37866965 70.92223764 217.69395815 80.96484375 179.3125 C81.7476418 175.88532446 82.40746451 172.46495917 83 169 C83.20496094 167.83082031 83.40992188 166.66164063 83.62109375 165.45703125 C86.33759504 147.37824684 86.21413196 128.80648608 82 111 C81.83902832 110.26152832 81.67805664 109.52305664 81.51220703 108.76220703 C76.42213994 85.52196797 65.66033335 63.95138212 50 46 C49.18015625 45.04738281 48.3603125 44.09476563 47.515625 43.11328125 C34.71141767 28.51954191 19.32726156 17.02776977 2.07421875 8.15625 C0 7 0 7 -2 5 C-1.46428571 1.46428571 -1.46428571 1.46428571 0 0 Z " fill="#F56D05" transform="translate(532,857)"/>
<path d="M0 0 C7.48585935 0.8200058 11.85025581 7.1745974 16.38623047 12.68359375 C36.72072032 38.32118152 48.47630016 68.48376776 48.375 101.375 C48.37412384 102.07354095 48.37324768 102.77208191 48.37234497 103.49179077 C48.24694668 133.97138518 38.95368302 162.29146594 21 187 C20.42121094 187.80308594 19.84242188 188.60617187 19.24609375 189.43359375 C3.87553285 209.65102699 -15.33374203 223.10953418 -38 234 C-39.65902344 234.804375 -39.65902344 234.804375 -41.3515625 235.625 C-51.45455491 239.98208568 -62.57908561 241.52912459 -73.34375 243.50683594 C-75.08405119 243.82994333 -76.81997541 244.17782883 -78.54980469 244.55297852 C-110.0676552 250.30319616 -146.54587227 238.8277131 -172.5078125 221.4453125 C-188.39772576 210.44328406 -202.74185616 196.43639516 -213 180 C-213.3820459 179.3925293 -213.7640918 178.78505859 -214.15771484 178.15917969 C-234.06473243 145.97797337 -240.59023476 106.7281068 -232.03515625 69.73828125 C-230.00792661 61.53092766 -227.27598756 53.70270711 -223.9375 45.9375 C-223.60927246 45.15721436 -223.28104492 44.37692871 -222.94287109 43.57299805 C-220.53244363 38.22324503 -220.53244363 38.22324503 -218.00219727 37.16235352 C-217.34147217 37.10877686 -216.68074707 37.0552002 -216 37 C-215.34 37.66 -214.68 38.32 -214 39 C-214.34772906 43.70456965 -215.95449386 47.5757149 -217.8125 51.875 C-220.82177725 59.08841459 -222.90132023 66.33576608 -224.55786133 73.97485352 C-224.86488327 75.38111912 -225.19452259 76.78256115 -225.54174805 78.17944336 C-227.2906628 85.73366444 -227.35717089 93.21386826 -227.3125 100.9375 C-227.31001251 101.62252594 -227.30752502 102.30755188 -227.30496216 103.01333618 C-227.10227107 139.16026442 -214.02578434 172.53695732 -188.49755859 198.52978516 C-169.23244473 217.44766813 -145.2059286 229.27627876 -119 235 C-118.15896729 235.18691406 -117.31793457 235.37382813 -116.45141602 235.56640625 C-98.0071505 239.32198799 -78.05874454 238.084008 -60 233 C-59.13826172 232.75862305 -58.27652344 232.51724609 -57.38867188 232.26855469 C-21.84586751 221.99345306 6.78281599 199.58883112 24.8125 167.20703125 C28.11979132 161.01013669 30.64427421 154.61386737 33 148 C33.37769531 146.99710938 33.75539063 145.99421875 34.14453125 144.9609375 C39.00579939 131.4513459 40.28101696 118.68931984 40.3125 104.4375 C40.31797852 103.14803467 40.32345703 101.85856934 40.32910156 100.5300293 C40.23780529 88.13026461 39.07479364 75.93782549 35.375 64.0625 C34.9891272 62.80373047 34.9891272 62.80373047 34.59545898 61.51953125 C31.93100496 53.20246518 28.22522815 45.61929838 24 38 C23.13375 36.38158203 23.13375 36.38158203 22.25 34.73046875 C17.62642422 26.39304853 11.96747057 19.15752904 5.390625 12.265625 C4.56046875 11.39421875 3.7303125 10.5228125 2.875 9.625 C2.10929688 8.85414063 1.34359375 8.08328125 0.5546875 7.2890625 C-1 5 -1 5 -0.7421875 2.2109375 C-0.49726562 1.48132813 -0.25234375 0.75171875 0 0 Z " fill="#F56D05" transform="translate(561,897)"/>
<path d="M0 0 C2.125 0.375 2.125 0.375 4 1 C4.71484375 2.69921875 4.71484375 2.69921875 5 5 C3.62890625 7.26953125 3.62890625 7.26953125 1.5625 9.8125 C-1.79058366 14.21085317 -4.64360889 18.62245898 -7.25 23.5 C-7.56638428 24.07983643 -7.88276855 24.65967285 -8.20874023 25.25708008 C-22.41105713 52.29617802 -23.42546035 84.36527816 -14.6875 113.125 C-9.46699871 129.39229583 -1.97702102 142.9341478 9 156 C9.59167969 156.73863281 10.18335938 157.47726562 10.79296875 158.23828125 C28.79411566 179.84733394 56.70814183 191.96939687 84 196 C118.77640944 197.81384781 149.02173667 190.36166212 176 168 C176.79921875 167.36578125 177.5984375 166.7315625 178.421875 166.078125 C198.06701266 149.77684056 209.39912789 125.36917914 215 101 C215.3403125 99.54400391 215.3403125 99.54400391 215.6875 98.05859375 C219.85530499 77.24851187 216.48595238 55.42645225 209.3046875 35.72265625 C207.26811356 29.91171323 207.26811356 29.91171323 207 27 C207.66 26.34 208.32 25.68 209 25 C210.96606445 25.07348633 210.96606445 25.07348633 213 26 C226.16669847 46.10371327 227.16582584 77.9453807 222.81103516 100.72900391 C222.02663719 104.20386383 221.05114765 107.5978056 220 111 C219.63389577 112.28509393 219.26800866 113.57024974 218.90234375 114.85546875 C209.50960763 145.58085977 188.37026167 172.69667192 160 188 C132.0432218 202.66619254 101.99248068 207.95718966 71 201 C69.73414063 200.7215625 68.46828125 200.443125 67.1640625 200.15625 C34.42936195 192.19561003 7.46644803 170.76841667 -10.05908203 142.27832031 C-27.06354709 113.8016374 -31.75145941 79.21146243 -24.0703125 46.984375 C-19.82492136 30.50835092 -12.2092523 12.2092523 0 0 Z " fill="#F36D06" transform="translate(369,922)"/>
<path d="M0 0 C2.1875 0.3125 2.1875 0.3125 4 1 C4.75 2.75 4.75 2.75 5 5 C3.1875 7.25 3.1875 7.25 1 9 C0.34 9 -0.32 9 -1 9 C-1.38478516 9.87205078 -1.38478516 9.87205078 -1.77734375 10.76171875 C-3.11146811 13.20406142 -4.62072773 14.82365447 -6.5625 16.8125 C-15.64500712 26.88402786 -21.78539512 39.18396171 -26 52 C-26.21027832 52.63035156 -26.42055664 53.26070312 -26.63720703 53.91015625 C-34.68191276 79.13346161 -30.51621211 107.69543721 -18.94335938 131.140625 C-14.38592228 139.7463801 -8.87269722 147.07329337 -2 154 C-0.7315625 155.3303125 -0.7315625 155.3303125 0.5625 156.6875 C1.7690625 157.8321875 1.7690625 157.8321875 3 159 C3.53496094 159.51820313 4.06992187 160.03640625 4.62109375 160.5703125 C26.58765508 180.9384754 53.67367716 186.23271163 82.63916016 185.17138672 C106.48094753 183.95556987 128.08832323 172.42325289 145 156 C145.61101562 155.45085937 146.22203125 154.90171875 146.8515625 154.3359375 C166.54777337 136.07871921 173.01101929 109.57506884 176 84 C177.65614657 83.61781233 179.32457024 83.28604898 181 83 C182.6676734 84.6676734 182.25195066 86.574125 182.3125 88.875 C181.93383683 115.60230868 169.15153788 139.26786376 152 159 C151.20916016 159.91845703 151.20916016 159.91845703 150.40234375 160.85546875 C134.92673731 177.51846188 108.80753263 191.07637289 85.88476562 192.14526367 C82.76300754 192.16564011 79.64136581 192.1856816 76.51953125 192.18530273 C74.53381212 192.18746321 72.54813213 192.20589558 70.5625 192.22460938 C38.73863794 192.27234517 13.22981623 179.15390698 -9.08203125 156.92578125 C-29.73282087 134.89012605 -37.85793779 105.5404775 -37.375 75.95703125 C-36.29276336 47.77636215 -22.57065575 22.63023157 -3 3 C-2.43539062 2.38125 -1.87078125 1.7625 -1.2890625 1.125 C-0.86367188 0.75375 -0.43828125 0.3825 0 0 Z " fill="#F26D07" transform="translate(395,917)"/>
<path d="M0 0 C0.69609375 0.24492188 1.3921875 0.48984375 2.109375 0.7421875 C1.9765625 2.48828125 1.9765625 2.48828125 1.109375 4.7421875 C-1.4453125 6.71484375 -1.4453125 6.71484375 -4.765625 8.8046875 C-20.28166953 19.07463792 -32.03227316 34.01120625 -37.890625 51.7421875 C-38.28121094 52.87140625 -38.67179687 54.000625 -39.07421875 55.1640625 C-45.59412678 76.91212943 -43.25508523 101.64639018 -32.890625 121.7421875 C-28.1579877 129.89949693 -22.49322116 137.02575348 -15.890625 143.7421875 C-15.20484375 144.44085937 -14.5190625 145.13953125 -13.8125 145.859375 C1.67947501 160.6054401 23.73576107 168.29702211 44.88256836 168.09350586 C69.862596 167.38007488 91.65683781 157.57194091 109.109375 139.7421875 C116.3281014 132.02605769 121.15287494 122.9897316 126.109375 113.7421875 C127.429375 114.0721875 128.749375 114.4021875 130.109375 114.7421875 C129.64081152 120.21109261 128.19740046 124.17519772 125.296875 128.8671875 C124.90161621 129.51316895 124.50635742 130.15915039 124.09912109 130.82470703 C111.26374894 151.0397999 90.54618491 166.42065301 67.109375 171.7421875 C59.49355826 173.4191421 52.27394192 174.02861917 44.484375 173.9296875 C43.51242187 173.92904297 42.54046875 173.92839844 41.5390625 173.92773438 C16.19397766 173.77443749 -5.18110825 163.14375423 -23.265625 145.7421875 C-34.66505849 133.86471325 -42.61308505 118.61411203 -46.890625 102.7421875 C-47.22707031 101.54916016 -47.22707031 101.54916016 -47.5703125 100.33203125 C-53.11244225 76.37940197 -47.3534294 51.15995522 -34.734375 30.515625 C-28.6200798 21.31827417 -12.78941395 -1.14067746 0 0 Z " fill="#F26C07" transform="translate(422.890625,919.2578125)"/>
<path d="M0 0 C2.0625 0.4375 2.0625 0.4375 4 1 C3.40658773 4.96799773 2.1370096 7.82312459 0.1875 11.3125 C-8.3667975 28.13251628 -8.96158841 45.86043276 -4 64 C2.48500518 83.17905788 14.67869244 97.89989474 32.625 107.25 C47.96750692 114.82906596 68.39463868 117.14628967 85 112 C95.46202403 108.27788022 105.91617962 103.4425362 113.65625 95.24609375 C114.0996875 94.83488281 114.543125 94.42367188 115 94 C117.1875 94.3125 117.1875 94.3125 119 95 C118.1003897 100.80891225 113.49319496 103.67972742 109 107 C90.0598819 119.05033066 68.05491172 123.33031648 45.9140625 118.80859375 C25.17415917 113.0536876 7.54240182 100.18148567 -3.25 81.4296875 C-13.06910908 62.18598711 -16.36814628 41.99061913 -10.41796875 20.91796875 C-8.19236399 14.36470641 -4.94643323 4.94643323 0 0 Z " fill="#F16C08" transform="translate(403,957)"/>
<path d="M0 0 C2.0625 0.4375 2.0625 0.4375 4 1 C4.06316406 1.8971875 4.12632812 2.794375 4.19140625 3.71875 C5.55996191 17.66361187 10.17798402 30.68473868 20 41 C20.56976563 41.60972656 21.13953125 42.21945312 21.7265625 42.84765625 C31.61751788 52.42294285 44.90049614 57.08759211 58.42578125 57.4609375 C61 58 61 58 62.35546875 60.0390625 C62.56816406 60.68617187 62.78085937 61.33328125 63 62 C61.34784709 63.65215291 59.46179221 63.21095636 57.1875 63.25 C41.28441971 63.04453385 27.27225667 55.98452639 16 45 C5.65145125 33.49254437 -0.83968815 19.46329452 -1.1875 3.875 C-1 1 -1 1 0 0 Z " fill="#F06C08" transform="translate(407,998)"/>
</svg>
