<?xml version="1.0" encoding="UTF-8"?>
<svg version="1.1" xmlns="http://www.w3.org/2000/svg" width="200" height="64" viewBox="0 0 2000 645">
<path d="M0 0 C0.75925781 0.18788086 1.51851562 0.37576172 2.30078125 0.56933594 C41.12768025 10.38099825 76.36539081 33.52899209 101 65 C101.4336084 65.55187988 101.8672168 66.10375977 102.31396484 66.67236328 C110.00545071 76.54398182 116.24729484 86.89898045 122 98 C122.34627441 98.6506543 122.69254883 99.30130859 123.04931641 99.97167969 C161.32471638 172.41687846 160.9918592 276.5715116 137.8046875 353.40771484 C129.14683487 381.29881897 117.17129218 407.67766594 98 430 C97.25363281 430.87398438 96.50726562 431.74796875 95.73828125 432.6484375 C89.8049682 439.40197515 83.39628502 445.69015126 77 452 C75.99933899 452.99933855 74.99917887 453.99917954 74 455 C74.3717334 455.47195801 74.7434668 455.94391602 75.12646484 456.43017578 C81.61848486 464.68674484 88.0638428 472.94676182 94.10791016 481.53881836 C97.72484604 486.66220586 101.4774685 491.67789234 105.25 496.6875 C115.07834539 509.74570754 124.77426017 522.89854725 134.375 536.125 C134.94105957 536.90182129 135.50711914 537.67864258 136.09033203 538.47900391 C136.60450684 539.18976074 137.11868164 539.90051758 137.6484375 540.6328125 C138.10395996 541.26074707 138.55948242 541.88868164 139.02880859 542.53564453 C140 544 140 544 140 545 C127.37830373 545.25527026 114.75722483 545.45052088 102.13346958 545.56993389 C96.27107406 545.62725836 90.41044886 545.70495847 84.54907227 545.82983398 C78.88844964 545.94967281 73.22952541 546.0151904 67.56773186 546.04364967 C65.41180624 546.06391976 63.25597002 546.10350669 61.10077095 546.16303062 C43.32019599 546.63441689 43.32019599 546.63441689 38.73167419 542.62817383 C36.42686752 539.84960062 34.7010589 537.17446259 33 534 C31.96772627 532.56014839 30.9184878 531.13201216 29.83984375 529.7265625 C28.86955451 528.36139001 27.90215397 526.99416027 26.9375 525.625 C21.19011155 517.56153889 15.23420002 509.67120362 9.20483398 501.81689453 C8.55587158 500.9711084 7.90690918 500.12532227 7.23828125 499.25390625 C6.66118408 498.50439697 6.08408691 497.7548877 5.48950195 496.98266602 C4.27158137 495.36150013 3.12475767 493.6871365 2 492 C-3.3669166 492.96322704 -8.72978493 493.93791828 -14.078125 495 C-76.908725 507.30739865 -148.45405582 501.40378848 -202.82861328 465.48730469 C-238.63116056 440.96412974 -263.05534912 404.63953431 -277 364 C-277.45802002 362.67887207 -277.45802002 362.67887207 -277.92529297 361.33105469 C-290.51790612 324.39361921 -294.2365524 285.01655898 -294.1875 246.1875 C-294.18689575 245.29503571 -294.1862915 244.40257141 -294.18566895 243.48306274 C-294.05354285 171.10615921 -278.7637472 98.48013747 -226.51220703 45.49121094 C-169.36401437 -11.30547131 -74.63045514 -18.83010328 0 0 Z M-164 99 C-167.15022973 102.55706568 -170.10443834 106.23367161 -173 110 C-173.91265625 111.17175781 -173.91265625 111.17175781 -174.84375 112.3671875 C-212.69875339 163.47144208 -210.71971683 244.4229963 -202.25 303.9375 C-196.52607547 341.4163583 -182.98185503 380.29841776 -151.3125 403.6875 C-120.83400661 423.66458942 -84.83050762 429.15426175 -49 425 C-49.61111228 421.81099253 -50.66017786 419.78328416 -52.59765625 417.19140625 C-53.14365479 416.455271 -53.68965332 415.71913574 -54.25219727 414.96069336 C-54.84959717 414.16928955 -55.44699707 413.37788574 -56.0625 412.5625 C-56.68374756 411.72920166 -57.30499512 410.89590332 -57.94506836 410.03735352 C-63.27642288 402.90609442 -68.69181629 395.83843929 -74.10571289 388.76977539 C-78.86859534 382.53440533 -83.49110643 376.21264041 -88.05126953 369.828125 C-93.03251061 362.88429651 -98.21698731 356.10098382 -103.4453125 349.34179688 C-104.08082031 348.51615234 -104.71632813 347.69050781 -105.37109375 346.83984375 C-106.2053186 345.76271118 -106.2053186 345.76271118 -107.05639648 344.66381836 C-109.82899208 340.86381955 -112.39071025 336.91393463 -115 333 C-82.33 333 -49.66 333 -16 333 C-15.34 334.32 -14.68 335.64 -14 337 C-13.10694853 338.31304256 -12.18260234 339.60513759 -11.234375 340.87890625 C-10.68104492 341.62567627 -10.12771484 342.37244629 -9.55761719 343.1418457 C-8.96110352 343.94066162 -8.36458984 344.73947754 -7.75 345.5625 C-6.47912001 347.27600707 -5.20828805 348.98954975 -3.9375 350.703125 C-3.28523438 351.58033203 -2.63296875 352.45753906 -1.9609375 353.36132812 C1.11845993 357.50501929 4.18570905 361.65762968 7.25 365.8125 C7.82669434 366.59415527 8.40338867 367.37581055 8.99755859 368.18115234 C14.07043437 375.06979671 19.05673553 382.01792369 24 389 C54.69891822 359.20243171 62.42535574 307.6239981 63.16113281 266.93554688 C63.1805917 264.86332534 63.19439902 262.79104453 63.203125 260.71875 C63.21013931 259.59434006 63.21715363 258.46993011 63.22438049 257.31144714 C63.24176686 253.70759011 63.24823166 250.10389742 63.25 246.5 C63.25067474 245.26835114 63.25134949 244.03670227 63.25204468 242.76773071 C63.23627184 224.65918316 62.90943212 206.90960872 60 189 C59.82307617 187.88544434 59.64615234 186.77088867 59.46386719 185.62255859 C54.64091212 156.1558858 45.67067086 128.68667199 27 105 C26.5359375 104.3915625 26.071875 103.783125 25.59375 103.15625 C8.70003079 81.69666074 -20.76561115 70.49096637 -47 67 C-87.85225107 62.34511545 -133.85838113 68.23690445 -164 99 Z " fill="#FFFFFF" transform="translate(1336,47)"/>
<path d="M0 0 C282.61642989 0 282.61642989 0 341.62011719 57.58105469 C355.25142473 71.2806468 365.93693106 86.99035149 375 104 C375.63784424 105.19157715 375.63784424 105.19157715 376.28857422 106.40722656 C396.24223266 144.31994475 405.02366687 188.66251414 405.203125 231.28125 C405.21013931 232.40565994 405.21715363 233.53006989 405.22438049 234.68855286 C405.24176686 238.29240989 405.24823166 241.89610258 405.25 245.5 C405.25067474 246.73164886 405.25134949 247.96329773 405.25204468 249.23226929 C405.23627164 267.34104018 404.90884055 285.09005589 402 303 C401.82839355 304.08265137 401.65678711 305.16530273 401.47998047 306.28076172 C396.66646754 335.70814506 388.09781805 363.69333263 374 390 C373.68063477 390.60005859 373.36126953 391.20011719 373.03222656 391.81835938 C356.71217976 422.20512672 332.69949065 446.63096952 303 464 C302.39607422 464.35690918 301.79214844 464.71381836 301.16992188 465.08154297 C217.14628849 514.17218937 77.43682936 494 0 494 C0 330.98 0 167.96 0 0 Z M89 73 C89 187.84 89 302.68 89 421 C143.75251244 422.34675925 143.75251244 422.34675925 199.4375 418.8125 C200.37086182 418.68649414 201.30422363 418.56048828 202.26586914 418.43066406 C228.19328526 414.64348905 251.80236841 405.99512424 272 389 C273.5159375 387.8553125 273.5159375 387.8553125 275.0625 386.6875 C305.76111912 358.60152931 314.8040326 312.04006607 316.89648438 272.42712402 C317.27107884 263.64403243 317.29671456 254.8521973 317.3125 246.0625 C317.31801376 244.60008377 317.31801376 244.60008377 317.32363892 243.10812378 C317.35997976 224.65727449 316.42544712 206.14215556 313.25 187.9375 C313.08081055 186.95692627 312.91162109 185.97635254 312.73730469 184.96606445 C306.37138662 149.71889201 292.77244306 117.51229601 263 96 C213.47789814 62.97167911 142.47882913 73 89 73 Z " fill="#FFFFFF" transform="translate(1572,46)"/>
<path d="M0 0 C103.62 0 207.24 0 314 0 C314 24.09 314 48.18 314 73 C239.42 73 164.84 73 88 73 C88 117.88 88 162.76 88 209 C157.3 209 226.6 209 298 209 C298 233.42 298 257.84 298 283 C228.7 283 159.4 283 88 283 C88 328.54 88 374.08 88 421 C163.9 421 239.8 421 318 421 C318 445.09 318 469.18 318 494 C213.06 494 108.12 494 0 494 C0 330.98 0 167.96 0 0 Z " fill="#FFFFFF" transform="translate(668,46)"/>
<path d="M0 0 C0.62648438 0.49371094 1.25296875 0.98742187 1.8984375 1.49609375 C10.59728262 8.41107432 18.43886834 16.23986859 26.3125 24.0625 C26.8251944 24.56974609 27.33788879 25.07699219 27.86611938 25.59960938 C34.71365729 32.39290745 41.0310349 39.40587623 47 47 C47.56307861 47.70374756 48.12615723 48.40749512 48.70629883 49.13256836 C89.69790221 100.58547024 116.88997274 167.52394906 117.203125 233.87890625 C117.21018463 234.88076462 117.21724426 235.88262299 117.22451782 236.9148407 C117.45267298 278.80400681 117.45267298 278.80400681 114 298 C113.80132324 299.13630859 113.60264648 300.27261719 113.39794922 301.44335938 C106.1443819 341.88946808 91.99139341 381.17705592 70 416 C69.3709375 417.00160156 68.741875 418.00320313 68.09375 419.03515625 C60.03113212 431.4536376 51.34617926 443.9275517 41.16015625 454.69921875 C39.34375391 456.6338679 37.61464924 458.60464775 35.88671875 460.6171875 C31.39141563 465.77256045 26.58320199 470.60081085 21.75 475.4375 C20.87214844 476.32759766 19.99429687 477.21769531 19.08984375 478.13476562 C13.04270077 484.1951893 6.72569926 489.70671969 0 495 C-1.09779785 495.87072144 -1.09779785 495.87072144 -2.21777344 496.7590332 C-51.71473971 535.72284678 -111.01500682 559.95757725 -174 565 C-174.69029297 565.05639648 -175.38058594 565.11279297 -176.09179688 565.17089844 C-229.85566596 569.37353205 -283.34640507 559.38804343 -332.625 537.8125 C-333.74495361 537.32571777 -334.86490723 536.83893555 -336.01879883 536.33740234 C-342.07488848 533.61333736 -348.28085307 530.80463271 -353 526 C-353.75 522.875 -353.75 522.875 -353 520 C-351.4375 517.5625 -351.4375 517.5625 -349 516 C-342.47414476 516.20287633 -337.5340676 519.00162155 -331.8125 521.9375 C-307.51430096 533.95148899 -281.49037425 541.87688952 -254.875 546.75 C-253.7921875 546.94891846 -252.709375 547.14783691 -251.59375 547.3527832 C-234.76869357 550.26394758 -217.99294265 551.38629458 -200.9375 551.3125 C-200.0522464 551.31067719 -199.1669928 551.30885437 -198.25491333 551.30697632 C-115.20217823 551.02105966 -40.19828751 515.85496114 18.6875 458.5 C22.63632861 454.50145592 26.18778386 450.25072625 29.6953125 445.86328125 C32.01325149 442.98353671 34.40808556 440.18271079 36.8125 437.375 C72.26502384 394.65716696 93.72078239 340.76021593 101 286 C101.11714355 285.12698242 101.23428711 284.25396484 101.35498047 283.35449219 C110.91451856 208.27021526 90.0620598 127.21981795 44 67 C43.55414551 66.41283203 43.10829102 65.82566406 42.64892578 65.22070312 C37.37647271 58.30395335 31.93211708 51.62588693 26.0390625 45.22265625 C24.18749705 43.20437897 22.40167 41.14650865 20.625 39.0625 C13.69860601 31.12366327 6.0847105 23.74839471 -2 17 C-2.49967285 16.57058105 -2.9993457 16.14116211 -3.51416016 15.69873047 C-20.7172211 0.93694613 -39.81236684 -11.69731814 -60 -22 C-60.92329102 -22.4738916 -61.84658203 -22.9477832 -62.79785156 -23.43603516 C-90.16775449 -37.35331358 -118.69023519 -46.91991897 -148.9375 -52.3125 C-149.76266113 -52.45985596 -150.58782227 -52.60721191 -151.43798828 -52.7590332 C-167.76083455 -55.45112002 -184.10303792 -56.38188087 -200.625 -56.3125 C-201.53587372 -56.31067719 -202.44674744 -56.30885437 -203.38522339 -56.30697632 C-218.43901523 -56.25653687 -233.1297541 -55.51975567 -248 -53 C-249.02754395 -52.82839355 -250.05508789 -52.65678711 -251.11376953 -52.47998047 C-266.73531148 -49.78860165 -281.92041452 -45.86694261 -297 -41 C-297.90782227 -40.70786621 -298.81564453 -40.41573242 -299.75097656 -40.11474609 C-333.76659136 -28.95086817 -365.51164588 -10.88461351 -393 12 C-393.88558594 12.70125 -394.77117187 13.4025 -395.68359375 14.125 C-403.48735788 20.45731316 -410.63311194 27.4174951 -417.75 34.5 C-418.2395517 34.98437531 -418.72910339 35.46875061 -419.23348999 35.96780396 C-425.9496326 42.62794705 -432.16605791 49.54959678 -438 57 C-438.54865723 57.69996094 -439.09731445 58.39992187 -439.66259766 59.12109375 C-441.10464923 60.98522072 -442.52606112 62.86261369 -443.9375 64.75 C-444.43693115 65.41467285 -444.9363623 66.0793457 -445.45092773 66.76416016 C-449.44795941 72.13701154 -453.19383654 77.65557218 -456.79077148 83.30371094 C-458.69498878 86.25316696 -460.03306281 88.02204188 -463 90 C-466.5625 89.8125 -466.5625 89.8125 -470 89 C-472.4044443 85.39333356 -472.58675182 84.26140941 -472 80 C-470.48814545 76.94818104 -468.58349075 74.21806598 -466.625 71.4375 C-465.8062439 70.2460437 -465.8062439 70.2460437 -464.97094727 69.03051758 C-449.31674248 46.44318324 -430.95780341 24.83951432 -410 7 C-409.08992188 6.20078125 -408.17984375 5.4015625 -407.2421875 4.578125 C-386.47596128 -13.53552985 -362.91567589 -28.28936062 -338 -40 C-336.86949219 -40.56589844 -335.73898437 -41.13179687 -334.57421875 -41.71484375 C-301.69046249 -57.84580761 -264.43186839 -67.10003717 -228 -70 C-226.97036133 -70.08459473 -226.97036133 -70.08459473 -225.91992188 -70.17089844 C-144.01342187 -76.63317598 -64.00591843 -50.92362767 0 0 Z " fill="#FF6F00" transform="translate(491,75)"/>
<path d="M0 0 C1.02754395 0.17160645 2.05508789 0.34321289 3.11376953 0.52001953 C54.41303732 9.35818437 101.76242899 31.06574458 142 64 C142.82999512 64.67337402 142.82999512 64.67337402 143.67675781 65.36035156 C158.10688167 77.13163044 171.59645291 90.26343087 183 105 C183.93414405 106.13688039 184.87189849 107.27080014 185.8125 108.40234375 C220.0236012 149.78994328 241.13573536 201.96560656 248 255 C248.17354004 256.30300049 248.17354004 256.30300049 248.35058594 257.63232422 C258.0697328 333.90022891 236.17501063 413.25730362 189.40185547 474.078125 C182.05818978 483.47236641 174.27069873 492.41372612 166 501 C165.46874512 501.55316895 164.93749023 502.10633789 164.39013672 502.67626953 C157.31455529 510.00402494 150.00981492 516.68891093 142 523 C140.89235561 523.91795401 139.78700262 524.83867784 138.68359375 525.76171875 C123.42237774 538.42733297 106.58489495 548.87572708 89 558 C88.21641113 558.40814941 87.43282227 558.81629883 86.62548828 559.23681641 C32.27604912 587.18016898 -33.62885062 597.4531875 -94 587 C-95.15177734 586.80132324 -96.30355469 586.60264648 -97.49023438 586.39794922 C-127.01252137 581.12611225 -155.56002946 571.94764772 -182.13378906 557.97363281 C-183.94098706 557.03078802 -185.76061764 556.11809647 -187.5859375 555.2109375 C-203.79443529 547.02839201 -218.93540693 536.4483561 -233 525 C-233.51401367 524.58218262 -234.02802734 524.16436523 -234.55761719 523.73388672 C-245.74993977 514.58558867 -257.25896667 505.00320868 -266.4375 493.79296875 C-268.29310846 491.66365804 -270.35083501 489.8394082 -272.4375 487.9375 C-275.32947913 485.09035776 -275.93829529 484.34218066 -276.6875 480.1875 C-276 477 -276 477 -274.875 475.0625 C-271.99938434 473.43298446 -270.26042342 473.48856103 -267 474 C-263.33081353 476.49816951 -260.66623194 479.33324002 -257.79296875 482.69140625 C-248.46938878 493.40672975 -238.23133181 503.30889829 -227 512 C-225.94743361 512.85196592 -224.89674533 513.70625585 -223.84765625 514.5625 C-178.4308495 551.37693806 -118.17577463 575.89138363 -59.27734375 576.203125 C-58.38245239 576.21018463 -57.48756104 576.21724426 -56.56555176 576.22451782 C-12.45001505 576.49332867 28.35157976 569.70034797 69 552 C69.74846191 551.67805664 70.49692383 551.35611328 71.26806641 551.02441406 C111.34003808 533.63382245 149.8213513 503.81136076 175.82080078 468.58496094 C176.93848013 467.08268882 178.0913902 465.60681668 179.24609375 464.1328125 C216.67019915 415.96845582 236.28203083 354.72205648 236.1875 294 C236.18689575 293.27733948 236.1862915 292.55467896 236.18566895 291.81011963 C236.15849556 279.77926677 235.68999387 267.92294165 234 256 C233.8146167 254.6694458 233.8146167 254.6694458 233.62548828 253.31201172 C227.71333779 212.44292779 213.06096022 172.36197805 190 138 C189.51821289 137.27925293 189.03642578 136.55850586 188.54003906 135.81591797 C181.93530502 126.02054305 174.82094305 116.84781496 167 108 C166.31035156 107.19949219 165.62070312 106.39898437 164.91015625 105.57421875 C154.32113617 93.48119198 142.84631262 81.68846744 130 72 C129.34370605 71.49436523 128.68741211 70.98873047 128.01123047 70.46777344 C116.18626794 61.37164842 103.96165276 53.37627735 91 46 C90.03513672 45.44022461 90.03513672 45.44022461 89.05078125 44.86914062 C52.67520464 23.8407433 7.5811077 11.02537883 -34.50390625 10.796875 C-35.3766922 10.78986069 -36.24947815 10.78284637 -37.14871216 10.77561951 C-39.95336126 10.75820851 -42.75779882 10.75176601 -45.5625 10.75 C-46.52330475 10.74932526 -47.4841095 10.74865051 -48.47402954 10.74795532 C-63.52814602 10.76473526 -78.1457921 11.35230259 -93 14 C-93.96744141 14.16628906 -94.93488281 14.33257812 -95.93164062 14.50390625 C-136.75107983 21.70263165 -176.29632424 37.80181404 -210 62 C-210.84691406 62.60255615 -210.84691406 62.60255615 -211.7109375 63.21728516 C-217.62760237 67.45094749 -223.26122291 71.99166561 -228.8125 76.6875 C-229.63995728 77.38721924 -229.63995728 77.38721924 -230.48413086 78.10107422 C-232.74900855 80.03019766 -234.9761489 81.97724299 -237.12890625 84.03125 C-240.05657216 86.80827538 -241.69690386 87.95453558 -245.75 88.5625 C-249 88 -249 88 -250.9375 86.875 C-252.50827359 84.10304661 -252.32123234 82.14652879 -252 79 C-246.44090069 71.17371042 -237.44893861 65.13094925 -229.83105469 59.38232422 C-228.63256396 58.47754362 -227.43773546 57.56788639 -226.24707031 56.65283203 C-187.61168489 26.96584441 -141.99221993 7.90574919 -94 0 C-92.97583984 -0.17499023 -91.95167969 -0.34998047 -90.89648438 -0.53027344 C-61.47041594 -5.35813717 -29.38620559 -4.97947772 0 0 Z " fill="#FF6F00" transform="translate(337,29)"/>
<path d="M0 0 C0.81694336 0.72437256 0.81694336 0.72437256 1.65039062 1.46337891 C14.79900617 13.14193868 26.48959217 25.90438766 37 40 C37.70890381 40.94020996 37.70890381 40.94020996 38.43212891 41.89941406 C81.92896918 99.9629758 98.95541795 174.1110748 89.1484375 245.59765625 C78.36318856 317.02949321 39.98727014 382.6758046 -18 426 C-18.57218262 426.42909668 -19.14436523 426.85819336 -19.73388672 427.30029297 C-59.54666099 456.96052903 -107.57252555 475.36953943 -157 480 C-158.71316406 480.16628906 -158.71316406 480.16628906 -160.4609375 480.3359375 C-211.2350054 484.4830468 -264.18340917 475.17937798 -309.21728516 450.95019531 C-311.02128025 449.98865753 -312.84103191 449.06553752 -314.66796875 448.1484375 C-329.81372112 440.45472286 -343.83444246 430.7057419 -357 420 C-357.79422363 419.36022217 -357.79422363 419.36022217 -358.60449219 418.70751953 C-373.3878837 406.71419565 -387.47075869 393.17248157 -399 378 C-399.76828125 377.04867188 -400.5365625 376.09734375 -401.328125 375.1171875 C-412.93065682 360.5592938 -422.27651888 344.40788914 -431 328 C-431.5775 326.9171875 -432.155 325.834375 -432.75 324.71875 C-434.35405429 321.22993192 -434.50108509 318.79392998 -434 315 C-432.375 313 -432.375 313 -430 312 C-427.20703125 311.81640625 -427.20703125 311.81640625 -424 313 C-421.63715439 316.06381241 -420.02151682 319.47783905 -418.3125 322.9375 C-417.25863531 324.96272448 -416.20128821 326.98614029 -415.140625 329.0078125 C-414.61404297 330.02133789 -414.08746094 331.03486328 -413.54492188 332.07910156 C-406.34445763 345.6926215 -397.62993181 358.01553912 -388 370 C-387.56284668 370.55429687 -387.12569336 371.10859375 -386.67529297 371.6796875 C-374.59910197 386.95181894 -360.44466726 401.31949439 -344.67871094 412.77001953 C-342.92194482 414.05719052 -341.1987935 415.38188414 -339.4765625 416.71484375 C-325.16742214 427.67069994 -309.32511049 436.42076219 -293 444 C-292.30036133 444.32564941 -291.60072266 444.65129883 -290.87988281 444.98681641 C-228.03686581 473.79571848 -155.35579143 474.7594529 -90.80908203 451.07519531 C-83.02865799 448.09718493 -75.47591474 444.66990819 -68 441 C-66.89301758 440.45690186 -66.89301758 440.45690186 -65.76367188 439.90283203 C-50.18990565 432.16118103 -35.66070086 422.75416876 -22 412 C-21.10152344 411.29488281 -20.20304687 410.58976562 -19.27734375 409.86328125 C-11.86168042 403.92008056 -4.89841196 397.52781609 2 391 C2.680625 390.36191406 3.36125 389.72382813 4.0625 389.06640625 C8.31307485 384.9634208 12.0058815 380.4573713 15.69921875 375.8515625 C17.13321901 374.07427864 18.5905529 372.31526887 20.08203125 370.5859375 C52.33070516 332.89268228 71.18723825 283.92575414 77 235 C77.09571289 234.2044873 77.19142578 233.40897461 77.29003906 232.58935547 C78.21305016 223.87037428 78.24346081 215.13285829 78.25 206.375 C78.25067474 205.55908386 78.25134949 204.74316772 78.25204468 203.90252686 C78.19542427 160.57574239 67.22138325 119.23749474 47 81 C46.48832275 80.02450195 46.48832275 80.02450195 45.96630859 79.02929688 C13.91660426 18.42296264 -43.37512264 -25.30487539 -108.16796875 -45.69921875 C-132.82864339 -53.29324584 -157.91264949 -56.42161877 -183.625 -56.3125 C-184.54442383 -56.31034485 -185.46384766 -56.3081897 -186.41113281 -56.30596924 C-200.78416193 -56.25206415 -214.85152869 -55.74151263 -229 -53 C-230.02867187 -52.80132324 -231.05734375 -52.60264648 -232.1171875 -52.39794922 C-256.45567812 -47.52806238 -279.8171325 -39.85827647 -301.8984375 -28.49609375 C-302.71006348 -28.08029053 -303.52168945 -27.6644873 -304.35791016 -27.23608398 C-305.90862911 -26.4347684 -307.4530878 -25.62117255 -308.98974609 -24.79321289 C-313.13866878 -22.62891079 -316.19324679 -21.35141261 -321 -22 C-322.9375 -23.625 -322.9375 -23.625 -324 -26 C-324.1875 -28.9375 -324.1875 -28.9375 -323 -32 C-320.33162197 -34.06935439 -317.98281504 -35.470242 -315 -37 C-313.87078125 -37.59683594 -312.7415625 -38.19367188 -311.578125 -38.80859375 C-222.97587857 -84.86760745 -112.68407824 -79.78995777 0 0 Z " fill="#FF6F00" transform="translate(474,117)"/>
<path d="M0 0 C1.34454254 0.00273422 1.34454254 0.00273422 2.71624756 0.00552368 C16.62150415 0.0529972 30.12445998 0.70101769 43.8125 3.3125 C45.14063721 3.54598145 45.14063721 3.54598145 46.49560547 3.78417969 C87.98327369 11.16402055 125.87389863 29.24095687 158.8125 55.3125 C159.62630127 55.95058594 159.62630127 55.95058594 160.45654297 56.6015625 C174.94628295 68.06003266 188.74706148 81.50873765 199.8125 96.3125 C200.67440416 97.43365141 201.53638867 98.55474106 202.3984375 99.67578125 C209.57800525 109.12925946 215.87012882 119.04265517 221.8125 129.3125 C222.20679199 129.98974121 222.60108398 130.66698242 223.00732422 131.36474609 C238.15196628 157.69511099 247.25560577 187.37483373 251.8125 217.3125 C251.92964355 218.07675293 252.04678711 218.84100586 252.16748047 219.62841797 C261.75197453 285.95083821 242.50531474 353.88070937 202.89453125 407.29296875 C196.71293046 415.42996262 189.89645206 422.95802402 182.8125 430.3125 C182.22952148 430.92270996 181.64654297 431.53291992 181.04589844 432.16162109 C172.52421538 441.04385434 163.7176386 449.01039896 153.8125 456.3125 C153.26835449 456.72274414 152.72420898 457.13298828 152.16357422 457.55566406 C120.26924875 481.59776079 83.14801745 497.5283347 43.8125 504.3125 C42.93190918 504.47331055 42.05131836 504.63412109 41.14404297 504.79980469 C-23.2667128 516.18643365 -91.92938096 499.70268868 -145.33984375 462.5715332 C-194.03630613 427.89726108 -228.87024252 378.90528798 -245.1875 321.3125 C-245.52652344 320.13816406 -245.86554688 318.96382813 -246.21484375 317.75390625 C-247.73212963 312.15323349 -248.82045862 307.11462065 -248.1875 301.3125 C-247 299.3125 -247 299.3125 -245.1875 298.3125 C-242.6875 297.9375 -242.6875 297.9375 -240.1875 298.3125 C-237.24904577 300.59003231 -236.52129533 302.83156897 -235.609375 306.37109375 C-235.33971924 307.38623047 -235.07006348 308.40136719 -234.79223633 309.44726562 C-234.51017334 310.53716797 -234.22811035 311.62707031 -233.9375 312.75 C-223.61842859 350.77592761 -206.57413364 386.01358046 -179.40234375 414.9453125 C-177.50237069 416.97597153 -175.71503551 419.05091118 -173.9375 421.1875 C-136.23639819 464.37561663 -75.84474737 490.32293909 -19.39648438 494.52001953 C13.99773341 496.74809033 46.02810074 492.64096098 77.8125 482.3125 C78.55016602 482.07305664 79.28783203 481.83361328 80.04785156 481.58691406 C123.77579115 467.03908674 164.56277671 437.48951362 191.8125 400.3125 C192.23724609 399.74321777 192.66199219 399.17393555 193.09960938 398.58740234 C199.61785212 389.84299727 205.39715189 380.77497662 210.8125 371.3125 C211.46863281 370.18972656 212.12476563 369.06695312 212.80078125 367.91015625 C227.5897728 341.56263424 235.87533982 312.13201431 239.8125 282.3125 C239.915625 281.55646484 240.01875 280.80042969 240.125 280.02148438 C247.51721694 217.87406053 228.2157082 154.67812292 190.50390625 105.2890625 C178.50556909 90.36065013 165.05507348 75.95297278 149.8125 64.3125 C148.87374023 63.59175293 148.87374023 63.59175293 147.91601562 62.85644531 C136.15169114 53.89075642 123.86628483 46.25610939 110.8125 39.3125 C110.05453125 38.90547852 109.2965625 38.49845703 108.515625 38.07910156 C86.64252278 26.51234139 62.13620523 19.36566537 37.8125 15.3125 C37.09562012 15.18939453 36.37874023 15.06628906 35.64013672 14.93945312 C8.87078533 10.49433361 -19.49920923 11.40107889 -45.9987793 16.9909668 C-51.32240662 18.09968485 -56.74589298 19.09394135 -62.1875 18.3125 C-64.1875 16.3125 -64.1875 16.3125 -64.4375 12.8125 C-64.1875 9.3125 -64.1875 9.3125 -62.1875 7.3125 C-58.58816029 6.2143408 -54.87353545 5.56150967 -51.1875 4.8125 C-50.20265625 4.59980469 -49.2178125 4.38710937 -48.203125 4.16796875 C-32.20345347 0.85839202 -16.30139045 -0.06926506 0 0 Z " fill="#FF6F00" transform="translate(290.1875,68.6875)"/>
<path d="M0 0 C0.77706299 0.09780762 1.55412598 0.19561523 2.35473633 0.29638672 C43.98055522 6.05542599 83.90417044 22.80282319 116.375 49.5625 C116.92961914 50.01560547 117.48423828 50.46871094 118.05566406 50.93554688 C131.02802199 61.5911513 143.21153912 73.15900964 153.375 86.5625 C154.09139648 87.49690918 154.09139648 87.49690918 154.82226562 88.45019531 C193.07487674 138.63590616 208.75014885 200.11539617 201.375 262.5625 C192.98371698 321.44884873 162.69032965 376.91150631 115.375 413.5625 C114.83810547 413.98112305 114.30121094 414.39974609 113.74804688 414.83105469 C64.53582238 452.94086574 2.25217812 469.58828604 -59.47021484 462.0078125 C-108.7028691 455.0583959 -153.76700067 434.07425896 -189.625 399.5625 C-190.25341797 398.96131348 -190.88183594 398.36012695 -191.52929688 397.74072266 C-234.16803041 356.74273419 -260.45889664 299.31122242 -261.8125 239.921875 C-261.84037482 237.63549167 -261.86126916 235.34901202 -261.875 233.0625 C-261.8843457 231.96905273 -261.89369141 230.87560547 -261.90332031 229.74902344 C-261.89913086 228.7284082 -261.89494141 227.70779297 -261.890625 226.65625 C-261.88724121 225.29016602 -261.88724121 225.29016602 -261.88378906 223.89648438 C-261.625 221.5625 -261.625 221.5625 -259.625 218.5625 C-256.125 218.25 -256.125 218.25 -252.625 218.5625 C-249.75931092 221.42818908 -250.28025604 223.55557875 -250.1328125 227.5703125 C-250.0700149 229.0347751 -250.00659389 230.49921106 -249.94262695 231.96362305 C-249.91190094 232.73427094 -249.88117493 233.50491882 -249.84951782 234.29891968 C-247.44889449 291.9175605 -226.53989822 343.76858375 -186.625 385.5625 C-185.31595703 386.95082031 -185.31595703 386.95082031 -183.98046875 388.3671875 C-177.57473892 394.98863005 -170.7526467 400.72335636 -163.38818359 406.23925781 C-161.71230314 407.49698034 -160.05350494 408.7748063 -158.39453125 410.0546875 C-120.76908344 438.52922676 -69.68957289 453.86643515 -22.625 451.5625 C-21.77808594 451.52141113 -20.93117188 451.48032227 -20.05859375 451.43798828 C10.83696192 449.75678019 43.30491809 442.99094996 70.50146484 427.61181641 C72.58223811 426.44643154 74.68866637 425.33798037 76.80078125 424.23046875 C86.99595063 418.81896288 96.30062624 412.68525081 105.375 405.5625 C106.33792969 404.81226563 107.30085938 404.06203125 108.29296875 403.2890625 C152.99066484 367.55670516 182.55703955 315.26923311 189.6796875 258.35546875 C193.01617181 225.87381265 190.23250317 193.70787985 180.375 162.5625 C180.15650391 161.8710791 179.93800781 161.1796582 179.71289062 160.46728516 C166.97538001 121.38272374 141.62239806 85.00737618 109.375 59.5625 C108.39917969 58.76972656 107.42335938 57.97695312 106.41796875 57.16015625 C92.91247305 46.40672383 78.02885866 37.79133379 62.375 30.5625 C61.31539063 30.0660498 61.31539063 30.0660498 60.234375 29.55957031 C41.45307862 20.85990067 21.82026087 15.64392828 1.34521484 12.80371094 C0.35859863 12.66610352 -0.62801758 12.52849609 -1.64453125 12.38671875 C-2.51182861 12.27416748 -3.37912598 12.16161621 -4.27270508 12.0456543 C-6.74825588 11.53718361 -8.52904461 10.98152283 -10.625 9.5625 C-11.375 5.9375 -11.375 5.9375 -11.625 2.5625 C-8.0069766 -1.06480039 -4.75071177 -0.64103191 0 0 Z " fill="#FF6F00" transform="translate(319.625,91.4375)"/>
<path d="M0 0 C4.86679495 0.38510741 7.94443393 1.9450921 12.13671875 4.3125 C13.25373169 4.92544922 13.25373169 4.92544922 14.39331055 5.55078125 C20.81907436 9.12733994 26.96733887 13.03264671 32.94921875 17.3125 C33.944375 18.02148438 34.93953125 18.73046875 35.96484375 19.4609375 C42.12752641 23.96443637 47.84532386 28.77958073 53.4296875 33.98046875 C55.57890983 35.96974896 57.76983403 37.86753568 60.01171875 39.75 C74.62180223 52.58916427 86.36320903 69.48978711 95.94921875 86.3125 C96.58988281 87.40820312 97.23054688 88.50390625 97.890625 89.6328125 C110.85271369 112.39279012 118.66328539 138.39583112 121.94921875 164.3125 C122.04348145 165.03928955 122.13774414 165.7660791 122.23486328 166.51489258 C123.11757886 174.16009377 123.19253783 181.81116371 123.19921875 189.5 C123.19989349 190.20258942 123.20056824 190.90517883 123.20126343 191.62905884 C123.1132375 249.73193137 99.24472731 302.06662567 58.94921875 343.3125 C56.38985826 345.79746048 53.71964947 348.0668437 50.94921875 350.3125 C49.87357147 351.21208842 48.79806385 352.11184383 47.72265625 353.01171875 C27.13748685 370.0489655 4.25350166 382.74623941 -21.05078125 391.3125 C-21.88802734 391.59609375 -22.72527344 391.8796875 -23.58789062 392.171875 C-56.30125819 402.9660134 -94.22816357 405.46268301 -128.05078125 398.3125 C-128.88706055 398.14621094 -129.72333984 397.97992187 -130.58496094 397.80859375 C-150.47941981 393.7955165 -169.19383399 386.91387321 -187.05078125 377.3125 C-188.04207031 376.79945313 -189.03335938 376.28640625 -190.0546875 375.7578125 C-207.21982873 366.72352764 -222.11952511 354.67360004 -236.05078125 341.3125 C-236.99953125 340.41660156 -237.94828125 339.52070313 -238.92578125 338.59765625 C-277.87556808 300.92037666 -297.25642584 247.06508173 -299.1796875 193.73828125 C-299.50426569 174.06884273 -297.73532248 152.93372201 -291.05078125 134.3125 C-288.74078125 133.9825 -286.43078125 133.6525 -284.05078125 133.3125 C-281.03901422 136.6606065 -281.03901422 136.6606065 -281.08984375 139.4765625 C-281.28320312 140.28867187 -281.4765625 141.10078125 -281.67578125 141.9375 C-282.78496483 147.07005755 -283.75070707 152.19632433 -284.61328125 157.375 C-284.73977051 158.10605957 -284.86625977 158.83711914 -284.99658203 159.59033203 C-291.99967336 201.0645027 -284.86569587 245.56077025 -264.95898438 282.61376953 C-264.15057281 284.12584686 -263.37193963 285.65375966 -262.59765625 287.18359375 C-251.97133486 307.73392218 -236.09424228 327.76953406 -218.05078125 342.3125 C-217.08269531 343.11816406 -216.11460937 343.92382812 -215.1171875 344.75390625 C-174.18239711 378.3217727 -121.1472919 394.69601309 -68.43701172 389.49243164 C-41.66852432 386.53322982 -16.80083549 379.04725759 6.94921875 366.3125 C7.8825 365.84585937 8.81578125 365.37921875 9.77734375 364.8984375 C32.97511551 353.02173399 54.22028442 333.95837851 69.94921875 313.3125 C70.38669434 312.75095215 70.82416992 312.1894043 71.27490234 311.61083984 C97.77644345 277.31635339 111.42774175 234.62308043 111.32421875 191.5 C111.32367493 190.64488831 111.3231311 189.78977661 111.3225708 188.90875244 C111.16561006 135.02350132 89.15871091 85.88944679 51.57421875 47.625 C37.36876634 33.50449572 20.56324763 22.65224142 3.1184082 12.97851562 C2.34456787 12.54345703 1.57072754 12.10839844 0.7734375 11.66015625 C0.08338623 11.27867432 -0.60666504 10.89719238 -1.31762695 10.50415039 C-3.05078125 9.3125 -3.05078125 9.3125 -5.05078125 6.3125 C-4.35236757 0.4458251 -4.35236757 0.4458251 0 0 Z " fill="#FF6F00" transform="translate(378.05078125,131.6875)"/>
<path d="M0 0 C2.17829916 1.77578736 4.06052421 3.49183876 6 5.5 C6.56323975 6.0767749 7.12647949 6.6535498 7.70678711 7.24780273 C39.24372798 40.29129931 57.78723006 85.38930455 59 131 C59.03996094 132.08410156 59.07992188 133.16820312 59.12109375 134.28515625 C60.11899586 184.47376229 40.88087377 232.43511947 6.36474609 268.56787109 C5.05051533 269.94699053 3.75339339 271.34235213 2.45703125 272.73828125 C-8.73102742 284.43411868 -21.94513388 294.0322766 -36 302 C-36.59619141 302.34981934 -37.19238281 302.69963867 -37.80664062 303.06005859 C-79.92198171 327.66348519 -131.91962578 333.26894611 -178.875 321.25 C-228.8146869 307.75370038 -270.23408026 275.32298605 -296.3112793 230.80566406 C-321.30802642 186.59239064 -326.45759187 133.88995529 -313.40380859 85.13549805 C-309.92884974 72.77973458 -304.96991433 61.36824112 -299 50 C-295.625 49.8125 -295.625 49.8125 -292 50 C-290 53 -290 53 -290.14453125 55.15625 C-291.32900671 59.0936844 -293.0129168 62.74984445 -294.6875 66.5 C-313.26655593 109.44132915 -314.12072061 158.4655657 -297.43994141 202.14501953 C-294.43940374 209.66619104 -290.81292723 216.86303173 -287 224 C-286.45730469 225.02609375 -285.91460937 226.0521875 -285.35546875 227.109375 C-277.7721529 240.76303371 -267.79607284 252.78869359 -257 264 C-256.4225 264.6290625 -255.845 265.258125 -255.25 265.90625 C-249.49687183 272.00456586 -242.70328922 277.00373775 -236 282 C-235.43845215 282.4218457 -234.8769043 282.84369141 -234.29833984 283.27832031 C-196.45429182 311.28046928 -147.7778039 320.65318809 -101.78515625 313.96875 C-66.91016063 308.40071507 -34.5383486 292.267784 -9 268 C-7.58928156 266.78472745 -6.17306281 265.57579395 -4.75 264.375 C-0.75870924 260.87457363 2.6697996 257.13227179 6 253 C6.42265137 252.47857422 6.84530273 251.95714844 7.28076172 251.41992188 C37.62105238 213.61336407 51.64845788 166.80472693 47.10595703 118.51489258 C43.3083325 84.39771252 30.17612185 51.34523276 8 25 C7.53916016 24.45182617 7.07832031 23.90365234 6.60351562 23.33886719 C0.41189077 15.79771511 0.41189077 15.79771511 -6.37109375 8.8125 C-8 7 -8 7 -7.875 3.3125 C-7.58625 2.219375 -7.2975 1.12625 -7 0 C-4.17037875 -1.41481062 -3.00135703 -0.98908357 0 0 Z " fill="#FF6F00" transform="translate(421,185)"/>
<path d="M0 0 C2 3 2 3 1.90234375 5.2734375 C0.72275738 8.83772878 -1.27624864 11.60354305 -3.4375 14.625 C-27.58653843 49.90462129 -36.48952149 92.27556553 -28.90722656 134.44946289 C-23.17763466 162.93186886 -10.24016849 188.38149055 9 210 C10.06531744 211.28934393 11.1283998 212.58054421 12.1875 213.875 C15.44561277 217.65292563 19.16776244 220.82020432 23 224 C23.73992187 224.62777344 24.47984375 225.25554687 25.2421875 225.90234375 C57.6022255 252.69221127 99.02435316 264.93618853 140.74169922 261.79345703 C160.06859481 259.91716271 178.58475431 254.52593014 196 246 C196.62036133 245.70399902 197.24072266 245.40799805 197.87988281 245.10302734 C233.54057216 227.94027748 261.60961897 195.04269971 275 158 C287.50827579 121.04006252 287.56914138 79.83165198 271.91796875 43.76171875 C270.89911281 40.6964798 270.83410116 38.20895758 271 35 C275.625 32.875 275.625 32.875 279 34 C297.85949981 66.75319294 298.31466877 112.33808397 289.05004883 147.88549805 C277.4350821 190.04309825 250.35426017 227.20893909 212.44433594 249.50292969 C198.12856939 257.57971251 183.77958927 263.66571715 167.875 267.75 C167.10019287 267.94899902 166.32538574 268.14799805 165.52709961 268.35302734 C152.59505128 271.48684665 139.80882908 272.41278069 126.5625 272.375 C125.774198 272.3737915 124.985896 272.37258301 124.17370605 272.37133789 C96.04143534 272.25482462 69.67935529 265.72928098 45 252 C43.9378125 251.42507813 42.875625 250.85015625 41.78125 250.2578125 C30.42995369 243.90927823 20.40706768 235.94285825 11 227 C10.46616699 226.49871582 9.93233398 225.99743164 9.38232422 225.48095703 C-23.38064746 194.54893889 -40.03941388 152.72300752 -42.1875 108.10546875 C-42.8513557 69.80929316 -30.74419755 31.24314818 -7 1 C-4.46578263 -0.26710868 -2.80561762 -0.28056176 0 0 Z " fill="#FF6F00" transform="translate(164,218)"/>
<path d="M0 0 C0.66 1.65 1.32 3.3 2 5 C0.982665 6.1904984 -0.03912764 7.3771874 -1.0625 8.5625 C-1.63097656 9.22378906 -2.19945312 9.88507813 -2.78515625 10.56640625 C-4.6020602 12.5627575 -6.45943265 14.44543642 -8.38671875 16.33203125 C-31.66956716 39.5034044 -44.8967868 73.56374954 -45.24145508 106.15136719 C-45.26924653 118.46536349 -45.01389691 130.04242528 -42 142 C-41.8443457 142.66257812 -41.68869141 143.32515625 -41.52832031 144.0078125 C-37.30185337 161.75728645 -29.18033224 178.59989009 -18 193 C-17.27039063 193.95003906 -16.54078125 194.90007812 -15.7890625 195.87890625 C0.73130269 216.71775287 22.06785748 231.09761395 47 240 C48.04285156 240.37898437 49.08570313 240.75796875 50.16015625 241.1484375 C83.54921471 252.37661645 121.58322249 248.45916411 152.99414062 233.04052734 C164.2725565 227.18991775 175.3340029 219.92975957 184.171875 210.7421875 C186 209 186 209 188 209 C188.40412109 208.09507812 188.40412109 208.09507812 188.81640625 207.171875 C190.01320552 204.9757681 191.07014066 203.87537879 192.9375 202.25 C215.15508194 180.54051245 225.51110047 147.54866089 228.2668457 117.45605469 C228.78844993 112.21155007 228.78844993 112.21155007 231 110 C233.5 109.6875 233.5 109.6875 236 110 C238.45650613 113.6847592 238.16970363 116.21069039 237.875 120.4375 C237.82496826 121.18322266 237.77493652 121.92894531 237.72338867 122.69726562 C235.20093557 154.34080185 222.07185407 186.01368117 200 209 C198.86969025 210.34973783 197.744448 211.70374007 196.625 213.0625 C192.29366055 218.02258227 187.19760221 221.98719721 182 226 C181.12214844 226.68191406 180.24429688 227.36382812 179.33984375 228.06640625 C147.73569066 251.85097507 108.36334568 261.11237326 69.3125 255.875 C31.56816982 250.1505733 -3.35198261 229.70560348 -26.39892578 199.14355469 C-45.25786329 173.16354383 -55.46249208 142.95862949 -55.3125 110.8125 C-55.30758545 109.55018555 -55.3026709 108.28787109 -55.29760742 106.98730469 C-54.81176311 67.9304052 -38.49202402 33.16124176 -11.6875 5.125 C-11.20812988 4.60647461 -10.72875977 4.08794922 -10.23486328 3.55371094 C-6.87457362 0.1689955 -4.72037876 -0.57174455 0 0 Z " fill="#FF6F00" transform="translate(199,212)"/>
<path d="M0 0 C0.73347656 0.37511719 1.46695313 0.75023437 2.22265625 1.13671875 C2.53515625 3.38671875 2.53515625 3.38671875 2.22265625 6.13671875 C0.03204248 8.32733252 -2.42350278 9.89811095 -4.984375 11.625 C-11.39599827 16.01721437 -17.12703572 20.80342471 -22.77734375 26.13671875 C-23.45539063 26.7503125 -24.1334375 27.36390625 -24.83203125 27.99609375 C-39.36350004 41.65217285 -48.43790429 60.16552855 -53.77734375 79.13671875 C-54.256875 80.76480469 -54.256875 80.76480469 -54.74609375 82.42578125 C-61.9046493 111.2588522 -56.02859085 143.19062484 -41.20507812 168.61425781 C-36.27262304 176.65765505 -30.39438264 183.44939265 -23.77734375 190.13671875 C-23.12378906 190.85085938 -22.47023437 191.565 -21.796875 192.30078125 C-3.43400984 211.95570302 25.54494533 223.44214903 52.16015625 224.47265625 C86.99603968 224.9902602 116.51559122 213.8404574 141.91015625 189.88671875 C151.39745855 179.9593746 158.39322148 168.63365944 164.54296875 156.42578125 C166.22265625 153.13671875 166.22265625 153.13671875 167.22265625 152.13671875 C168.8888274 152.09608043 170.5565372 152.09399775 172.22265625 152.13671875 C173.4296875 154.16796875 173.4296875 154.16796875 174.22265625 157.13671875 C173.26135094 159.87810677 172.27923687 162.1121256 170.91015625 164.63671875 C170.35799438 165.69076904 170.35799438 165.69076904 169.79467773 166.76611328 C163.96089648 177.64649047 156.76149046 187.22403015 148.22265625 196.13671875 C147.53816406 196.884375 146.85367188 197.63203125 146.1484375 198.40234375 C131.12160631 214.29023181 111.07580382 224.34551831 90.22265625 230.13671875 C89.04574219 230.47703125 87.86882812 230.81734375 86.65625 231.16796875 C66.98421693 235.83224882 42.49785368 235.20754544 23.22265625 229.13671875 C22.43117188 228.89002441 21.6396875 228.64333008 20.82421875 228.38916016 C-11.49818313 218.00801018 -37.93018084 195.69426793 -53.58984375 165.609375 C-61.02030481 150.72603338 -66.18495251 133.84708833 -66.77734375 117.13671875 C-66.82890625 115.92371094 -66.88046875 114.71070313 -66.93359375 113.4609375 C-67.84561278 81.6424478 -57.3507827 51.38264771 -36.77734375 27.13671875 C-35.66939453 25.80833984 -35.66939453 25.80833984 -34.5390625 24.453125 C-28.60034295 17.60075629 -9.94628776 -3.09160281 0 0 Z " fill="#FF6E00" transform="translate(231.77734375,213.86328125)"/>
<path d="M0 0 C3.125 0.375 3.125 0.375 6 1 C5.51007121 6.67439912 3.92332668 10.55477573 1.1875 15.5 C-2.846939 23.14017953 -5.18024945 30.55923617 -7 39 C-7.1743457 39.77158447 -7.34869141 40.54316895 -7.52832031 41.33813477 C-11.78179445 65.34208328 -6.17753904 89.87852967 6.75 110.25 C22.67519273 132.80814248 43.96693737 145.68204572 70.75390625 151.609375 C95.75831874 154.61832957 121.14875496 150.18441955 141.734375 134.98046875 C145.08986991 132.30500757 148.36599018 129.54776932 151.61328125 126.7421875 C154 125 154 125 156.8125 125.25 C159 126 159 126 159.8125 127.625 C160 130 160 130 157.93359375 132.8125 C143.18842657 149.6928189 118.75535836 158.62755089 97 161 C68.06217616 162.76065246 40.88692936 156.00419925 18.8125 136.5625 C17.20138555 135.04902885 15.59699431 133.52836315 14 132 C13.25105469 131.32582031 12.50210938 130.65164063 11.73046875 129.95703125 C-4.90794897 114.42589877 -16.05661982 90.09769746 -17.12451172 67.34741211 C-17.4621257 54.58203875 -17.49227793 42.36659457 -14 30 C-13.73316406 29.00742187 -13.46632812 28.01484375 -13.19140625 26.9921875 C-10.60456256 18.36937519 -6.46572424 6.46572424 0 0 Z " fill="#FF6F00" transform="translate(204,265)"/>
<path d="M0 0 C2.625 0.375 2.625 0.375 5 1 C5.15855469 2.28132813 5.31710938 3.56265625 5.48046875 4.8828125 C8.16870688 25.32611013 14.11181435 42.08578606 29 57 C29.61359375 57.62519531 30.2271875 58.25039063 30.859375 58.89453125 C43.16403043 70.54188671 58.71374052 75.97908915 75.3527832 77.22998047 C80.54281683 77.67686471 80.54281683 77.67686471 83.01171875 79.421875 C84 81 84 81 83.6875 83.1875 C83.460625 83.785625 83.23375 84.38375 83 85 C66.24398929 87.98218372 49.28870395 81.35289023 35 73 C31.10468329 70.22689361 27.53302074 67.2179743 24 64 C23.29359375 63.38640625 22.5871875 62.7728125 21.859375 62.140625 C6.84551402 48.30895779 -0.57468027 28.01334027 -2.24609375 8.0625 C-2.3125 5.625 -2.3125 5.625 -2 2 C-1.34 1.34 -0.68 0.68 0 0 Z " fill="#FF6F00" transform="translate(210,319)"/>
</svg>
