<svg aria-hidden="true" class="logo page-header__logo-object" version="1.1" xmlns="http://www.w3.org/2000/svg" x="0" y="0" viewBox="0 0 259.53 42.52" xml:space="preserve"><style>.st1{fill:#fff}</style>
  <path fill="#6caddf" d="M0 0h42.52v42.52H0z"></path>
  <path fill="#fff" d="M10.13 38.48H5.37V17.06l4.76-.65v22.07zM18.4 38.48h-4.73V24.96h4.4l.09 2.37c.54-.95 1.17-1.64 1.9-2.07.72-.43 1.63-.64 2.71-.64h.38v5.04h-1.02c-1.47 0-2.46.17-2.96.5-.51.34-.76 1.14-.76 2.43v5.89zM24.3 38.48l6.05-9.97h-5.22l.83-3.56h11.87l-6.05 9.95h5.87l-.56 3.57H24.3z"></path>
  <path fill="#000" class="logo__title page-header__logo-title" d="M52.8 38.48c-1.22 0-2.01-.74-2.01-2.34 0-1.31.81-2.39 2.18-2.39 1.11 0 2.02.62 2.02 2.29 0 1.35-.84 2.44-2.19 2.44zm.1-4.17c-.72 0-1.4.54-1.4 1.76 0 1.17.51 1.81 1.4 1.81.72 0 1.37-.55 1.37-1.81 0-1.1-.46-1.76-1.37-1.76zM58.76 32.3c-.23-.07-.48-.1-.72-.1-.7 0-1.01.4-1.01 1.29v.34h1.35v.54h-1.35v4.03h-.69v-4.03h-.99v-.54h.99v-.33c0-1.28.63-1.87 1.73-1.87.26 0 .51.03.75.08l-.06.59zM62.61 38.47c-.92 0-1.19-.4-1.19-1.35v-2.75h-.99v-.54h.99v-1.52l.69-.19v1.71h1.34v.54h-1.34v2.46c0 .82.15 1.03.69 1.03.23 0 .47-.03.65-.08v.6c-.23.05-.55.09-.84.09zM63.84 32.14v-.39c.4-.06 1.01-.08 1.48-.06v2.23c0 .3-.02.68-.07.91l.02.01c.27-.67.85-1.1 1.63-1.1 1.05 0 1.38.66 1.38 1.47v3.19h-.69v-2.96c0-.72-.19-1.13-.86-1.13-.82 0-1.4.81-1.4 1.89v2.2h-.68v-6.16c-.23-.04-.54-.08-.81-.1zM73.19 35.97h-3.05c-.05 1.37.5 1.94 1.52 1.94.48 0 .98-.12 1.32-.29l.06.59c-.42.18-.94.28-1.51.28-1.38 0-2.11-.74-2.11-2.34 0-1.37.74-2.39 2-2.39s1.78.87 1.78 1.88c0 .07 0 .19-.01.33zm-1.81-1.7c-.64 0-1.1.47-1.21 1.19h2.32c.02-.71-.41-1.19-1.11-1.19zM77.8 38.42c-.38 0-.97-.02-1.5-.03v-6.2c.42-.01.98-.03 1.73-.03 1.35 0 1.99.57 1.99 1.47 0 .68-.47 1.27-1.17 1.47v.02c.92.14 1.31.78 1.31 1.44.01.68-.4 1.86-2.36 1.86zm.11-5.69c-.3 0-.62.01-.89.02v2.16c.19.01.35.01.59.01 1.1 0 1.68-.43 1.68-1.17-.01-.59-.29-1.02-1.38-1.02zm-.3 2.72c-.11 0-.45 0-.6.01v2.34c.17.03.44.06.85.06 1.09 0 1.57-.54 1.57-1.27 0-.88-.8-1.14-1.82-1.14zM83.85 38.39c0-.35 0-.7.05-.97h-.02c-.22.58-.81 1.05-1.59 1.05-.73 0-1.25-.39-1.25-1.11 0-.96.99-1.62 2.78-1.62v-.38c0-.69-.25-1.08-1.04-1.08-.44 0-.99.14-1.4.4l-.06-.61c.43-.19.97-.34 1.58-.34 1.26 0 1.62.63 1.62 1.49v2.61c.22.04.53.07.8.09v.4c-.42.06-1.03.09-1.47.07zm-.04-2.14c-1.72 0-2.09.54-2.09.98 0 .41.29.68.74.68.81 0 1.34-.8 1.34-1.59v-.07zM87.76 38.39h-.72l-1.73-4.57h.78l1.07 2.98c.1.29.17.54.26.81h.01c.07-.25.16-.52.25-.77l1.09-3.01h.75l-1.76 4.56zM92.59 38.39c0-.35 0-.7.05-.97h-.02c-.22.58-.81 1.05-1.59 1.05-.73 0-1.25-.39-1.25-1.11 0-.96.99-1.62 2.78-1.62v-.38c0-.69-.25-1.08-1.04-1.08-.44 0-.99.14-1.4.4l-.06-.61c.43-.19.97-.34 1.58-.34 1.26 0 1.62.63 1.62 1.49v2.61c.22.04.53.07.8.09v.4c-.42.06-1.03.09-1.47.07zm-.03-2.14c-1.72 0-2.09.54-2.09.98 0 .41.29.68.74.68.81 0 1.34-.8 1.34-1.59v-.07zM95.76 34.97l.02.01c.18-.67.65-1.35 1.62-1.24l-.04.68c-1-.17-1.49.61-1.49 2.14v1.83h-.68v-4.02c-.22-.04-.53-.07-.8-.09v-.39c.4-.06 1.01-.08 1.48-.06 0 .3-.04.75-.11 1.14zM99.29 38.39h-.68v-4.02c-.22-.04-.53-.07-.8-.09v-.39c.4-.06 1.01-.08 1.48-.06v4.56zM98.95 33c-.26 0-.47-.2-.47-.47 0-.26.21-.47.47-.47.27 0 .48.21.48.47 0 .27-.22.47-.48.47zM103.3 38.39c0-.35 0-.7.05-.97h-.02c-.22.58-.81 1.05-1.59 1.05-.73 0-1.25-.39-1.25-1.11 0-.96.99-1.62 2.78-1.62v-.38c0-.69-.25-1.08-1.04-1.08-.44 0-.99.14-1.4.4l-.06-.61c.43-.19.97-.34 1.58-.34 1.26 0 1.62.63 1.62 1.49v2.61c.22.04.53.07.8.09v.4c-.42.06-1.03.09-1.47.07zm-.03-2.14c-1.72 0-2.09.54-2.09.98 0 .41.29.68.74.68.81 0 1.34-.8 1.34-1.59v-.07zM106.5 34.84l.02.01c.27-.66.85-1.11 1.64-1.11 1.05 0 1.38.66 1.38 1.47v3.19h-.69v-2.96c0-.72-.19-1.13-.86-1.13-.82 0-1.4.81-1.4 1.89v2.2h-.68v-4.02c-.22-.04-.53-.07-.8-.09v-.39c.4-.06 1.01-.08 1.48-.06-.01.28-.04.72-.09 1zM116.88 38.39l-.54-1.53h-2.76l-.55 1.53h-.73l2.31-6.2h.76l2.31 6.2h-.8zm-1.64-4.53c-.12-.31-.2-.59-.28-.91h-.02c-.07.3-.17.6-.28.9l-.9 2.45h2.37l-.89-2.44zM120.08 38.45c-1.02 0-1.98-.45-1.98-2.18 0-1.5.75-2.51 2.24-2.51.38 0 .74.06 1.08.16l-.07.61c-.3-.12-.66-.2-1.05-.2-.98 0-1.47.73-1.47 1.83 0 .94.29 1.71 1.4 1.71.4 0 .85-.1 1.15-.26l.06.6c-.3.11-.8.24-1.36.24zM124.92 38.39c0-.35 0-.7.05-.97h-.02c-.22.58-.81 1.05-1.59 1.05-.73 0-1.25-.39-1.25-1.11 0-.96.99-1.62 2.78-1.62v-.38c0-.69-.25-1.08-1.04-1.08-.44 0-.99.14-1.4.4l-.06-.61c.43-.19.97-.34 1.58-.34 1.26 0 1.62.63 1.62 1.49v2.61c.22.04.53.07.8.09v.4c-.42.06-1.02.09-1.47.07zm-.03-2.14c-1.72 0-2.09.54-2.09.98 0 .41.29.68.74.68.81 0 1.34-.8 1.34-1.59v-.07zM130.06 38.39c0-.28.03-.72.08-.99l-.02-.01c-.26.65-.84 1.09-1.57 1.09-1.13 0-1.68-.83-1.68-2.16 0-1.63.92-2.55 2.34-2.55.27 0 .53.02.85.05v-1.58c-.22-.04-.53-.07-.8-.09v-.39c.4-.06 1.01-.08 1.48-.06v6.16c.22.04.53.07.8.09v.4c-.41.03-1.01.06-1.48.04zm0-3.97c-.31-.07-.61-.11-.9-.11-.94 0-1.56.57-1.56 1.95 0 1.03.35 1.65 1.1 1.65.91 0 1.36-1.07 1.36-1.88v-1.61zM135.8 35.97h-3.05c-.05 1.37.5 1.94 1.52 1.94.48 0 .98-.12 1.32-.29l.06.59c-.42.18-.94.28-1.51.28-1.38 0-2.11-.74-2.11-2.34 0-1.37.74-2.39 2-2.39s1.78.87 1.78 1.88c.01.07.01.19-.01.33zm-1.8-1.7c-.64 0-1.1.47-1.21 1.19h2.32c.01-.71-.41-1.19-1.11-1.19zM142.99 38.39v-2.95c0-.69-.16-1.14-.82-1.14-.71 0-1.37.73-1.37 1.91v2.18h-.69v-2.96c0-.63-.12-1.13-.82-1.13-.76 0-1.38.79-1.38 1.91v2.18h-.68v-4.02c-.22-.04-.53-.07-.8-.09v-.39c.4-.06 1.01-.08 1.48-.06 0 .29-.03.73-.07 1.01l.01.01c.27-.67.86-1.11 1.62-1.11 1.03 0 1.25.74 1.27 1.09.17-.43.67-1.09 1.59-1.09.86 0 1.35.46 1.35 1.49v3.17h-.69zM146.65 38.87c-.53 1.41-.94 1.88-1.94 1.88-.16 0-.39-.02-.58-.05l.07-.63c.18.06.37.09.57.09.55 0 .83-.26 1.19-1.22l.21-.54-1.75-4.57h.79l.96 2.62c.15.41.25.74.35 1.08h.01c.08-.29.28-.86.46-1.39l.82-2.32h.75l-1.91 5.05zM152.86 38.48c-1.22 0-2.01-.74-2.01-2.34 0-1.31.81-2.39 2.18-2.39 1.11 0 2.02.62 2.02 2.29 0 1.35-.83 2.44-2.19 2.44zm.11-4.17c-.72 0-1.4.54-1.4 1.76 0 1.17.51 1.81 1.4 1.81.72 0 1.37-.55 1.37-1.81-.01-1.1-.46-1.76-1.37-1.76zM158.83 32.3c-.23-.07-.48-.1-.72-.1-.7 0-1.01.4-1.01 1.29v.34h1.35v.54h-1.35v4.03h-.69v-4.03h-.99v-.54h.99v-.33c0-1.28.63-1.87 1.73-1.87.26 0 .51.03.75.08l-.06.59zM162.22 38.48c-.46 0-.9-.07-1.24-.16l.04-.69c.36.13.84.23 1.27.23.8 0 1.47-.32 1.47-1.17 0-1.47-2.88-.91-2.88-2.87 0-.98.79-1.72 2.15-1.72.39 0 .74.05 1.11.12l-.04.63c-.35-.1-.76-.17-1.12-.17-.9 0-1.38.42-1.38 1.06 0 1.43 2.88.91 2.88 2.85 0 1.11-.86 1.89-2.26 1.89zM167.29 38.45c-1.02 0-1.98-.45-1.98-2.18 0-1.5.75-2.51 2.24-2.51.38 0 .74.06 1.08.16l-.07.61c-.3-.12-.66-.2-1.05-.2-.98 0-1.47.73-1.47 1.83 0 .94.29 1.71 1.4 1.71.4 0 .85-.1 1.15-.26l.06.6c-.31.11-.8.24-1.36.24zM170.61 38.39h-.68v-4.02c-.22-.04-.53-.07-.8-.09v-.39c.4-.06 1.01-.08 1.48-.06v4.56zm-.34-5.39c-.26 0-.47-.2-.47-.47 0-.26.21-.47.47-.47.27 0 .48.21.48.47 0 .27-.21.47-.48.47zM175.53 35.97h-3.05c-.05 1.37.5 1.94 1.52 1.94.48 0 .98-.12 1.32-.29l.06.59c-.42.18-.94.28-1.51.28-1.38 0-2.11-.74-2.11-2.34 0-1.37.74-2.39 2-2.39s1.78.87 1.78 1.88c0 .07 0 .19-.01.33zm-1.81-1.7c-.64 0-1.1.47-1.21 1.19h2.32c.02-.71-.41-1.19-1.11-1.19zM177.55 34.84l.02.01c.27-.66.84-1.11 1.64-1.11 1.05 0 1.38.66 1.38 1.47v3.19h-.69v-2.96c0-.72-.19-1.13-.86-1.13-.82 0-1.4.81-1.4 1.89v2.2h-.68v-4.02c-.22-.04-.53-.07-.8-.09v-.39c.4-.06 1.01-.08 1.48-.06 0 .28-.03.72-.09 1zM183.71 38.45c-1.02 0-1.98-.45-1.98-2.18 0-1.5.75-2.51 2.24-2.51.38 0 .74.06 1.08.16l-.07.61c-.3-.12-.66-.2-1.05-.2-.98 0-1.47.73-1.47 1.83 0 .94.29 1.71 1.4 1.71.4 0 .85-.1 1.15-.26l.06.6c-.3.11-.8.24-1.36.24zM189.45 35.97h-3.05c-.04 1.37.5 1.94 1.52 1.94.48 0 .98-.12 1.32-.29l.06.59c-.42.18-.94.28-1.51.28-1.38 0-2.11-.74-2.11-2.34 0-1.37.74-2.39 2-2.39s1.78.87 1.78 1.88c.01.07.01.19-.01.33zm-1.8-1.7c-.64 0-1.1.47-1.21 1.19h2.32c.01-.71-.41-1.19-1.11-1.19zM191.35 38.48a5.5 5.5 0 0 1-.96-.09l.02-.63c.29.08.66.15 1.02.15.66 0 1.12-.29 1.12-.77 0-1.09-2.22-.41-2.22-2.04 0-.76.62-1.34 1.78-1.34.29 0 .61.05.89.1l-.02.6c-.3-.1-.63-.16-.95-.16-.67 0-1 .28-1 .73 0 1.09 2.23.47 2.23 2.02 0 .79-.71 1.43-1.91 1.43zM198.85 38.39c0-.35 0-.7.05-.97h-.02c-.22.58-.81 1.05-1.59 1.05-.73 0-1.25-.39-1.25-1.11 0-.96.99-1.62 2.78-1.62v-.38c0-.69-.25-1.08-1.04-1.08-.44 0-.99.14-1.4.4l-.06-.61c.43-.19.97-.34 1.58-.34 1.26 0 1.62.63 1.62 1.49v2.61c.22.04.53.07.8.09v.4c-.43.06-1.03.09-1.47.07zm-.04-2.14c-1.72 0-2.09.54-2.09.98 0 .41.29.68.74.68.81 0 1.34-.8 1.34-1.59v-.07zM202.04 34.84l.02.01c.27-.66.85-1.11 1.64-1.11 1.05 0 1.38.66 1.38 1.47v3.19h-.69v-2.96c0-.72-.19-1.13-.87-1.13-.82 0-1.4.81-1.4 1.89v2.2h-.68v-4.02c-.22-.04-.53-.07-.8-.09v-.39c.4-.06 1.01-.08 1.48-.06 0 .28-.02.72-.08 1zM209.41 38.39c0-.28.03-.72.08-.99l-.02-.01c-.26.65-.84 1.09-1.57 1.09-1.13 0-1.68-.83-1.68-2.16 0-1.63.92-2.55 2.34-2.55.27 0 .53.02.85.05v-1.58c-.22-.04-.53-.07-.8-.09v-.39c.4-.06 1.01-.08 1.48-.06v6.16c.22.04.53.07.8.09v.4c-.41.03-1.01.06-1.48.04zm0-3.97c-.31-.07-.61-.11-.9-.11-.94 0-1.56.57-1.56 1.95 0 1.03.35 1.65 1.1 1.65.91 0 1.36-1.07 1.36-1.88v-1.61zM217.81 38.39v-2.92h-3.37v2.92h-.71v-6.2h.71v2.69h3.37v-2.69h.7v6.2h-.7zM223.22 38.39c0-.29.03-.73.08-1.01l-.02-.01c-.27.66-.85 1.11-1.64 1.11-1.06 0-1.38-.66-1.38-1.47v-2.64c-.22-.04-.53-.07-.8-.09v-.39c.42-.06 1.03-.08 1.49-.06v2.96c0 .72.19 1.13.86 1.13.82 0 1.39-.81 1.39-1.89v-2.2h.69v4.02c.22.04.53.07.8.09v.4c-.4.04-1.01.07-1.47.05zM231.59 38.39v-2.95c0-.69-.16-1.14-.82-1.14-.71 0-1.37.73-1.37 1.91v2.18h-.69v-2.96c0-.63-.12-1.13-.82-1.13-.76 0-1.38.79-1.38 1.91v2.18h-.68v-4.02c-.22-.04-.53-.07-.8-.09v-.39c.4-.06 1.01-.08 1.48-.06 0 .29-.03.73-.07 1.01l.01.01c.27-.67.86-1.11 1.62-1.11 1.03 0 1.25.74 1.27 1.09.17-.43.67-1.09 1.59-1.09.86 0 1.35.46 1.35 1.49v3.17h-.69zM236.29 38.39c0-.35 0-.7.05-.97h-.02c-.22.58-.81 1.05-1.59 1.05-.73 0-1.25-.39-1.25-1.11 0-.96.99-1.62 2.78-1.62v-.38c0-.69-.25-1.08-1.04-1.08-.44 0-.99.14-1.4.4l-.07-.61c.43-.19.97-.34 1.58-.34 1.26 0 1.62.63 1.62 1.49v2.61c.22.04.53.07.8.09v.4c-.41.06-1.01.09-1.46.07zm-.03-2.14c-1.72 0-2.09.54-2.09.98 0 .41.29.68.74.68.81 0 1.34-.8 1.34-1.59v-.07zM239.49 34.84l.02.01c.27-.66.84-1.11 1.64-1.11 1.05 0 1.38.66 1.38 1.47v3.19h-.69v-2.96c0-.72-.19-1.13-.86-1.13-.82 0-1.4.81-1.4 1.89v2.2h-.68v-4.02c-.22-.04-.53-.07-.8-.09v-.39c.4-.06 1.01-.08 1.48-.06-.01.28-.03.72-.09 1zM245 38.39h-.68v-4.02c-.22-.04-.53-.07-.8-.09v-.39c.4-.06 1.01-.08 1.48-.06v4.56zm-.34-5.39c-.26 0-.47-.2-.47-.47 0-.26.21-.47.47-.47.27 0 .48.21.48.47 0 .27-.21.47-.48.47zM247.94 38.47c-.92 0-1.19-.4-1.19-1.35v-2.75h-.99v-.54h.99v-1.52l.69-.19v1.71h1.34v.54h-1.34v2.46c0 .82.15 1.03.69 1.03.23 0 .47-.03.65-.08v.6c-.23.05-.55.09-.84.09zM250.79 38.39h-.68v-4.02c-.22-.04-.53-.07-.8-.09v-.39c.4-.06 1.01-.08 1.48-.06v4.56zm-.34-5.39c-.26 0-.47-.2-.47-.47 0-.26.21-.47.47-.47.27 0 .48.21.48.47 0 .27-.22.47-.48.47zM255.7 35.97h-3.05c-.05 1.37.5 1.94 1.52 1.94.48 0 .98-.12 1.32-.29l.06.59c-.42.18-.94.28-1.51.28-1.38 0-2.11-.74-2.11-2.34 0-1.37.74-2.39 2-2.39s1.78.87 1.78 1.88c.01.07.01.19-.01.33zm-1.8-1.7c-.64 0-1.1.47-1.21 1.19H255c.02-.71-.4-1.19-1.1-1.19zM257.6 38.48c-.34 0-.69-.04-.97-.09l.02-.63c.29.08.66.15 1.02.15.66 0 1.12-.29 1.12-.77 0-1.09-2.22-.41-2.22-2.04 0-.76.62-1.34 1.78-1.34.29 0 .61.05.89.1l-.02.6c-.3-.1-.63-.16-.95-.16-.67 0-1 .28-1 .73 0 1.09 2.23.47 2.23 2.02.02.79-.7 1.43-1.9 1.43zM50.74 24.88V14.43h1.19v9.44h3.87v1.01h-5.06zM62.68 20.79h-5.14c-.08 2.31.84 3.27 2.55 3.27.81 0 1.66-.2 2.23-.49l.11.99c-.71.29-1.58.46-2.54.46-2.32 0-3.56-1.25-3.56-3.95 0-2.31 1.24-4.03 3.38-4.03 2.12 0 3 1.47 3 3.17 0 .15 0 .35-.03.58zm-3.03-2.86c-1.08 0-1.86.79-2.04 2h3.9c.03-1.2-.68-2-1.86-2zM66.25 24.88H65.1v-6.77c-.37-.06-.9-.12-1.35-.15v-.67c.68-.09 1.7-.14 2.49-.11v7.7zm-.58-9.09c-.43 0-.79-.34-.79-.79a.794.794 0 0 1 1.59 0c.01.45-.35.79-.8.79zM70.27 17.48c0 .43-.05 1.02-.12 1.41l.03.01c.42-1.16 1.42-1.86 2.62-1.86 1.81 0 2.85 1.25 2.85 3.64 0 2.74-1.55 4.29-3.96 4.29-1.04 0-1.77-.08-2.56-.29V14.51c-.37-.06-.9-.12-1.35-.16v-.67c.68-.09 1.7-.14 2.49-.11v3.91zm2.29.53c-1.53 0-2.29 1.8-2.29 3.16v2.69c.45.14.93.2 1.52.2 1.58 0 2.63-.96 2.63-3.28 0-1.74-.59-2.77-1.86-2.77zM78.99 18.89l.03.01c.45-1.11 1.42-1.87 2.76-1.87 1.77 0 2.32 1.11 2.32 2.48v5.37h-1.16v-4.99c0-1.21-.33-1.9-1.46-1.9-1.38 0-2.35 1.36-2.35 3.19v3.7h-1.15v-6.77c-.37-.06-.9-.12-1.35-.15v-.67c.68-.09 1.7-.14 2.49-.11.01.5-.04 1.24-.13 1.71zM88.28 24.88h-1.15v-6.77c-.37-.06-.9-.12-1.35-.15v-.67c.68-.09 1.7-.14 2.49-.11v7.7zm-.57-9.09c-.43 0-.79-.34-.79-.79a.794.794 0 0 1 1.59 0c0 .45-.35.79-.8.79zM90.29 24.88v-.82l3.92-5.87c-.5.02-1.32.03-2.18.03h-1.66v-1.04h5.17v.81l-3.89 5.85c.46-.02 1.5-.03 2.23-.03h1.73v1.07h-5.32zM102.62 25.02c-.77 0-1.52-.11-2.09-.26l.06-1.16c.6.22 1.41.39 2.14.39 1.35 0 2.48-.54 2.48-1.97 0-2.48-4.85-1.53-4.85-4.83 0-1.66 1.33-2.9 3.62-2.9.65 0 1.25.08 1.87.2l-.06 1.07c-.59-.17-1.29-.28-1.89-.28-1.52 0-2.32.71-2.32 1.78 0 2.4 4.85 1.53 4.85 4.8 0 1.84-1.44 3.16-3.81 3.16zM113.85 24.88c0-.49.05-1.22.14-1.7l-.03-.02c-.45 1.11-1.42 1.87-2.76 1.87-1.78 0-2.32-1.11-2.32-2.48v-4.44c-.37-.06-.9-.12-1.35-.15v-.67c.71-.09 1.73-.14 2.51-.11v4.99c0 1.21.33 1.9 1.46 1.9 1.38 0 2.34-1.36 2.34-3.19v-3.7H115v6.77c.37.06.9.12 1.35.16v.67c-.69.08-1.71.13-2.5.1zM116.93 17.96v-.67c.68-.09 1.7-.14 2.48-.11 0 .46-.02 1.22-.12 1.67l.03.02c.43-1.11 1.41-1.83 2.65-1.83 1.8 0 2.83 1.25 2.83 3.64 0 2.76-1.52 4.29-3.93 4.29-.53 0-.91-.02-1.44-.11v3.87h-1.15V18.11c-.38-.06-.9-.12-1.35-.15zm4.78.05c-1.53 0-2.29 1.8-2.29 3.16v2.69c.46.14.93.2 1.52.2 1.58 0 2.63-.96 2.63-3.28 0-1.74-.59-2.77-1.86-2.77zM132.38 20.79h-5.14c-.08 2.31.84 3.27 2.56 3.27.81 0 1.66-.2 2.23-.49l.11.99c-.71.29-1.58.46-2.54.46-2.32 0-3.56-1.25-3.56-3.95 0-2.31 1.24-4.03 3.38-4.03 2.12 0 3 1.47 3 3.17-.01.15-.01.35-.04.58zm-3.03-2.86c-1.08 0-1.86.79-2.04 2h3.9c.03-1.2-.69-2-1.86-2zM135.76 19.12l.03.02c.31-1.13 1.1-2.28 2.73-2.09l-.06 1.15c-1.69-.28-2.51 1.02-2.51 3.61v3.08h-1.15v-6.77c-.37-.06-.9-.12-1.35-.15v-.67c.68-.09 1.7-.14 2.49-.11 0 .51-.06 1.26-.18 1.93zM142.55 24.97c-1.72 0-3.33-.76-3.33-3.67 0-2.52 1.27-4.23 3.78-4.23.64 0 1.26.09 1.81.26l-.12 1.02c-.51-.2-1.11-.34-1.76-.34-1.66 0-2.48 1.22-2.48 3.08 0 1.58.5 2.88 2.35 2.88.68 0 1.42-.17 1.93-.43l.11 1.01c-.5.21-1.34.42-2.29.42zM149.12 25.02c-2.06 0-3.39-1.25-3.39-3.95 0-2.2 1.36-4.03 3.67-4.03 1.87 0 3.41 1.04 3.41 3.85 0 2.3-1.41 4.13-3.69 4.13zm.17-7.01c-1.21 0-2.35.91-2.35 2.97 0 1.97.85 3.05 2.35 3.05 1.21 0 2.31-.93 2.31-3.05 0-1.86-.78-2.97-2.31-2.97zM164.79 24.88v-4.97c0-1.16-.26-1.92-1.38-1.92-1.19 0-2.31 1.22-2.31 3.22v3.67h-1.16v-4.99c0-1.05-.2-1.9-1.38-1.9-1.29 0-2.32 1.33-2.32 3.22v3.67h-1.15v-6.77c-.37-.06-.9-.12-1.35-.15v-.67c.68-.09 1.7-.14 2.49-.11 0 .5-.05 1.22-.12 1.7l.01.01c.45-1.13 1.46-1.87 2.73-1.87 1.73 0 2.11 1.25 2.14 1.84.29-.73 1.13-1.84 2.68-1.84 1.46 0 2.28.77 2.28 2.51v5.34h-1.16zM167.64 17.96v-.67c.68-.09 1.7-.14 2.48-.11 0 .46-.02 1.22-.12 1.67l.03.02c.43-1.11 1.41-1.83 2.65-1.83 1.8 0 2.83 1.25 2.83 3.64 0 2.76-1.52 4.29-3.93 4.29-.53 0-.91-.02-1.44-.11v3.87h-1.15V18.11c-.37-.06-.9-.12-1.35-.15zm4.79.05c-1.53 0-2.29 1.8-2.29 3.16v2.69c.46.14.93.2 1.52.2 1.58 0 2.63-.96 2.63-3.28-.01-1.74-.59-2.77-1.86-2.77zM182.75 24.88c0-.49.05-1.22.14-1.7l-.03-.02c-.45 1.11-1.42 1.87-2.76 1.87-1.78 0-2.32-1.11-2.32-2.48v-4.44c-.37-.06-.9-.12-1.35-.15v-.67c.71-.09 1.73-.14 2.51-.11v4.99c0 1.21.33 1.9 1.46 1.9 1.38 0 2.34-1.36 2.34-3.19v-3.7h1.16v6.77c.37.06.9.12 1.35.16v.67c-.68.08-1.71.13-2.5.1zM189.1 25c-1.55 0-2-.68-2-2.28V18.1h-1.67v-.91h1.67v-2.55l1.16-.33v2.88h2.26v.91h-2.26v4.15c0 1.38.25 1.73 1.16 1.73.39 0 .79-.05 1.1-.14v1.01c-.39.09-.94.15-1.42.15zM193.9 24.88h-1.15v-6.77c-.37-.06-.9-.12-1.35-.15v-.67c.68-.09 1.7-.14 2.49-.11v7.7zm-.57-9.09c-.43 0-.79-.34-.79-.79 0-.43.36-.79.79-.79.45 0 .81.36.81.79 0 .45-.36.79-.81.79zM197.95 18.89l.03.01c.45-1.11 1.43-1.87 2.76-1.87 1.76 0 2.32 1.11 2.32 2.48v5.37h-1.16v-4.99c0-1.21-.33-1.9-1.46-1.9-1.38 0-2.35 1.36-2.35 3.19v3.7h-1.15v-6.77c-.37-.06-.9-.12-1.35-.15v-.67c.68-.09 1.7-.14 2.49-.11.01.5-.04 1.24-.13 1.71zM207.61 28.86c-.85 0-1.6-.11-2.2-.28l.09-1.18c.63.25 1.5.42 2.23.42 1.67 0 2.63-.62 2.63-2.51v-.68c0-.56.02-1.01.11-1.43l-.03-.01c-.43 1.11-1.41 1.83-2.6 1.83-1.81 0-2.85-1.22-2.85-3.64 0-2.74 1.53-4.3 4.01-4.3.85 0 1.73.08 2.51.22v8.31c0 1.33-.62 3.25-3.9 3.25zm2.75-10.68c-.51-.12-1.02-.17-1.52-.17-1.58 0-2.63.96-2.63 3.28 0 1.73.59 2.77 1.86 2.77 1.53 0 2.29-1.8 2.29-3.17v-2.71zM221.47 25c-3.24 0-4.72-2.01-4.72-5.11 0-3.14 1.52-5.56 5.08-5.56.8 0 1.64.12 2.41.31l-.12 1.1c-.87-.26-1.67-.4-2.49-.4-2.54 0-3.59 1.98-3.59 4.37 0 2.69 1.19 4.24 3.75 4.24.81 0 1.81-.23 2.46-.56l.12 1.05c-.81.35-1.82.56-2.9.56zM231.74 20.79h-5.14c-.08 2.31.84 3.27 2.56 3.27.81 0 1.66-.2 2.23-.49l.11.99c-.71.29-1.58.46-2.54.46-2.32 0-3.56-1.25-3.56-3.95 0-2.31 1.24-4.03 3.38-4.03 2.12 0 3 1.47 3 3.17-.01.15-.01.35-.04.58zm-3.04-2.86c-1.08 0-1.86.79-2.04 2h3.9c.03-1.2-.68-2-1.86-2zM235.16 18.89l.03.01c.45-1.11 1.43-1.87 2.76-1.87 1.76 0 2.32 1.11 2.32 2.48v5.37h-1.16v-4.99c0-1.21-.33-1.9-1.46-1.9-1.38 0-2.35 1.36-2.35 3.19v3.7h-1.15v-6.77c-.37-.06-.9-.12-1.35-.15v-.67c.68-.09 1.7-.14 2.49-.11.01.5-.04 1.24-.13 1.71zM245.05 25c-1.55 0-2-.68-2-2.28V18.1h-1.67v-.91h1.67v-2.55l1.16-.33v2.88h2.26v.91h-2.26v4.15c0 1.38.25 1.73 1.16 1.73.39 0 .79-.05 1.1-.14v1.01c-.4.09-.94.15-1.42.15zM249.67 19.12l.03.02c.31-1.13 1.1-2.28 2.73-2.09l-.06 1.15c-1.69-.28-2.51 1.02-2.51 3.61v3.08h-1.15v-6.77c-.37-.06-.9-.12-1.35-.15v-.67c.68-.09 1.7-.14 2.49-.11 0 .51-.06 1.26-.18 1.93zM259.5 20.79h-5.14c-.08 2.31.84 3.27 2.56 3.27.81 0 1.66-.2 2.23-.49l.11.99c-.71.29-1.58.46-2.54.46-2.32 0-3.56-1.25-3.56-3.95 0-2.31 1.24-4.03 3.38-4.03 2.12 0 3 1.47 3 3.17-.01.15-.01.35-.04.58zm-3.03-2.86c-1.08 0-1.86.79-2.04 2h3.9c.02-1.2-.69-2-1.86-2z"></path>
</svg>